<svg width="182" height="26" viewBox="0 0 182 26" fill="none" xmlns="http://www.w3.org/2000/svg">
<path d="M40.2134 23.1776C38.8267 23.1776 37.5171 22.9079 36.2845 22.3687C35.0519 21.8294 33.9734 21.0879 33.0489 20.1442C32.1245 19.1813 31.3926 18.0739 30.8534 16.822C30.3334 15.5509 30.0734 14.1931 30.0734 12.7487C30.0734 11.3042 30.3334 9.95608 30.8534 8.70423C31.3926 7.45237 32.1245 6.3546 33.0489 5.41089C33.9926 4.44793 35.0904 3.70645 36.3422 3.18645C37.6134 2.64719 38.9808 2.37756 40.4445 2.37756C42.043 2.37756 43.526 2.68571 44.8934 3.302C46.2608 3.9183 47.4067 4.7946 48.3311 5.93089L46.0778 8.18423C45.4808 7.33682 44.6815 6.69163 43.68 6.24867C42.6785 5.78645 41.6 5.55534 40.4445 5.55534C39.0578 5.55534 37.8348 5.86349 36.7756 6.47978C35.7356 7.07682 34.9267 7.9146 34.3489 8.99312C33.7711 10.0716 33.4822 11.3235 33.4822 12.7487C33.4822 14.1739 33.7711 15.4353 34.3489 16.5331C34.946 17.6116 35.7452 18.459 36.7467 19.0753C37.7482 19.6916 38.8845 19.9998 40.1556 19.9998C41.5037 19.9998 42.6593 19.759 43.6223 19.2776C44.6045 18.7768 45.3556 18.045 45.8756 17.082C46.3956 16.0998 46.6556 14.8961 46.6556 13.4709L48.7356 14.9731H40.0978V11.9398H50.0934V12.402C50.0934 14.8094 49.66 16.8124 48.7934 18.4109C47.946 20.0094 46.7808 21.2035 45.2978 21.9931C43.8148 22.7827 42.12 23.1776 40.2134 23.1776ZM62.9279 23.1776C61.4835 23.1776 60.1353 22.9079 58.8835 22.3687C57.6316 21.8294 56.5339 21.0879 55.5901 20.1442C54.6464 19.1813 53.905 18.0739 53.3657 16.822C52.8457 15.5509 52.5857 14.1931 52.5857 12.7487C52.5857 11.3042 52.8457 9.95608 53.3657 8.70423C53.905 7.45237 54.6368 6.3546 55.5613 5.41089C56.505 4.44793 57.5931 3.70645 58.8257 3.18645C60.0776 2.64719 61.4257 2.37756 62.8702 2.37756C64.3146 2.37756 65.6531 2.64719 66.8857 3.18645C68.1376 3.70645 69.2353 4.44793 70.179 5.41089C71.1227 6.3546 71.8546 7.462 72.3746 8.73312C72.9139 9.98497 73.1835 11.3331 73.1835 12.7776C73.1835 14.222 72.9139 15.5798 72.3746 16.8509C71.8546 18.1027 71.1227 19.2005 70.179 20.1442C69.2546 21.0879 68.1664 21.8294 66.9146 22.3687C65.682 22.9079 64.3531 23.1776 62.9279 23.1776ZM62.8702 19.9998C64.2376 19.9998 65.4316 19.6916 66.4524 19.0753C67.4924 18.459 68.3013 17.6116 68.879 16.5331C69.4761 15.4353 69.7746 14.1739 69.7746 12.7487C69.7746 11.6894 69.6013 10.7264 69.2546 9.85978C68.9272 8.97386 68.4553 8.21312 67.839 7.57756C67.2227 6.92275 66.4909 6.422 65.6435 6.07534C64.8153 5.72867 63.8909 5.55534 62.8702 5.55534C61.522 5.55534 60.3279 5.86349 59.2879 6.47978C58.2672 7.07682 57.4583 7.9146 56.8613 8.99312C56.2835 10.0716 55.9946 11.3235 55.9946 12.7487C55.9946 13.8079 56.1583 14.7902 56.4857 15.6953C56.8324 16.5813 57.3042 17.342 57.9013 17.9776C58.5176 18.6131 59.2494 19.1139 60.0968 19.4798C60.9442 19.8264 61.8687 19.9998 62.8702 19.9998ZM78.8441 14.3087V11.5642H83.9575C84.9782 11.5642 85.7678 11.3042 86.3263 10.7842C86.9041 10.245 87.193 9.50349 87.193 8.55978C87.193 7.71237 86.9138 6.99978 86.3552 6.422C85.7967 5.84423 85.0071 5.55534 83.9863 5.55534H78.8441V2.66645H84.1308C85.4019 2.66645 86.5189 2.92645 87.4819 3.44645C88.4449 3.94719 89.1863 4.64052 89.7063 5.52645C90.2456 6.39311 90.5152 7.38497 90.5152 8.502C90.5152 9.67682 90.2456 10.6976 89.7063 11.5642C89.1863 12.4309 88.4449 13.105 87.4819 13.5864C86.5189 14.0679 85.4019 14.3087 84.1308 14.3087H78.8441ZM76.5619 22.8887V2.66645H79.8841V22.8887H76.5619ZM87.6552 22.8887L80.5775 14.1064L83.6686 12.9798L91.8441 22.8887H87.6552ZM94.3071 22.8887V2.66645H97.6294V22.8887H94.3071ZM96.5894 22.8887V19.8553H107.914V22.8887H96.5894ZM96.5894 14.0198V11.102H106.932V14.0198H96.5894ZM96.5894 5.69978V2.66645H107.769V5.69978H96.5894ZM111.347 22.8887V2.66645H113.658L114.669 6.47978V22.8887H111.347ZM125.358 22.8887L113.254 7.08645L113.658 2.66645L125.763 18.4687L125.358 22.8887ZM125.358 22.8887L124.347 19.3353V2.66645H127.669V22.8887H125.358ZM137.139 22.8887V3.24423H140.461V22.8887H137.139ZM130.552 5.69978V2.66645H147.048V5.69978H130.552ZM145.646 22.8887L153.966 2.66645H156.277L164.539 22.8887H160.957L154.486 6.50867H155.699L149.17 22.8887H145.646ZM149.748 18.9887V16.0998H160.466V18.9887H149.748ZM167.206 22.8887V2.66645H170.529V22.8887H167.206ZM169.489 22.8887V19.8553H180.062V22.8887H169.489Z" fill="white"/>
<path d="M12.7411 1.74712C13.3003 1.3107 13.9964 1.08305 14.7067 1.08305H23.1111V0H13.9623C13.4202 0 12.8845 0.131749 12.4126 0.394761C9.2112 2.17143 8.08752 5.00257 5.95571 8.37378C5.9601 8.32486 5.97083 8.27788 5.97083 8.22799V8.2275C5.97083 7.30139 5.21521 6.5511 4.28361 6.5511H1.68722C0.755616 6.55159 0 7.30187 0 8.22799V8.22847C0 9.1541 0.755616 9.90488 1.68722 9.90488H4.28312C4.57221 9.90488 4.84081 9.82592 5.07871 9.69853C4.47178 10.5685 3.78149 11.4665 2.95324 12.3878C2.15277 13.2775 1.72134 14.4337 1.72134 15.6267V20.5881C1.72134 22.298 2.51547 23.9308 3.90824 24.9354C3.94236 24.9601 3.97698 24.9848 4.0111 25.0095C4.93149 25.6561 6.0342 26 7.16177 26H9.91563L13.7147 21.8213H21.9167V23.2652H14.5961L12.3594 25.9995H23.1111V9.49122H7.37968C8.52481 6.4116 10.1959 3.73885 12.7411 1.74712ZM10.4982 18.7659C9.86736 20.0083 7.56688 20.1183 5.35951 19.0105C3.15409 17.9038 1.87685 15.9987 2.50962 14.7563C3.1419 13.5134 5.44238 13.4035 7.6478 14.5103C9.85323 15.618 11.1305 17.5216 10.4982 18.7659ZM7.85353 11.2432L11.4298 13.5677H21.9167V15.2436H11.4298L7.03112 12.5229C6.79274 12.3756 6.67135 12.1267 6.67135 11.8777C6.67135 11.6641 6.76154 11.449 6.94533 11.2955C7.20419 11.0824 7.57127 11.0606 7.85353 11.2432Z" fill="white"/>
</svg>
