<svg width="40" height="30" viewBox="0 0 40 30" fill="none" xmlns="http://www.w3.org/2000/svg">
<path d="M36.25 0.5H25C23.2083 0.5 21.75 1.95827 21.75 3.75V15.7959C21.75 16.9951 21.9124 18.1883 22.2334 19.3418L22.2344 19.3447L22.2656 19.4346L25.9043 28.0654L25.9121 28.0859L25.9189 28.1074C26.1821 28.9307 26.9568 29.4999 27.8252 29.5H31.875C32.0992 29.5 32.3108 29.4001 32.4531 29.2275C32.5957 29.0546 32.6542 28.8265 32.6113 28.6064L30.7139 18.8457L30.5977 18.25H36.25C38.0417 18.25 39.5 16.7917 39.5 15V3.75C39.5 1.95827 38.0417 0.5 36.25 0.5Z" stroke="#555555"/>
<path d="M15 0.5H3.75C1.95827 0.5 0.5 1.95827 0.5 3.75V15.7959C0.5 16.9928 0.661964 18.185 0.982422 19.3389L1.01562 19.4346L4.6543 28.0645L4.66309 28.085L4.66992 28.1064C4.93249 28.9303 5.70618 29.5 6.5752 29.5H10.625C10.8497 29.5 11.0617 29.3995 11.2031 29.2275L11.2041 29.2266C11.3467 29.0538 11.4044 28.8268 11.3613 28.6074V28.6064L9.46289 18.8457L9.34668 18.25H15C16.7917 18.25 18.25 16.7917 18.25 15V3.75C18.25 1.95827 16.7917 0.5 15 0.5Z" stroke="#555555"/>
</svg>
