<svg width="40" height="30" viewBox="0 0 40 30" fill="none" xmlns="http://www.w3.org/2000/svg">
<path d="M3.75 0.5H15C16.7917 0.5 18.25 1.95827 18.25 3.75V15.7959C18.25 16.9951 18.0876 18.1883 17.7666 19.3418L17.7656 19.3447L17.7344 19.4346L14.0957 28.0654L14.0879 28.0859L14.0811 28.1074C13.8179 28.9307 13.0432 29.4999 12.1748 29.5H8.125C7.90083 29.5 7.68924 29.4001 7.54688 29.2275C7.40433 29.0546 7.34583 28.8265 7.38867 28.6064L9.28613 18.8457L9.40234 18.25H3.75C1.95827 18.25 0.5 16.7917 0.5 15V3.75C0.5 1.95827 1.95827 0.5 3.75 0.5Z" stroke="#555555"/>
<path d="M25 0.5H36.25C38.0417 0.5 39.5 1.95827 39.5 3.75V15.7959C39.5 16.9928 39.338 18.185 39.0176 19.3389L38.9844 19.4346L35.3457 28.0645L35.3369 28.085L35.3301 28.1064C35.0675 28.9303 34.2938 29.5 33.4248 29.5H29.375C29.1503 29.5 28.9383 29.3995 28.7969 29.2275L28.7959 29.2266C28.6533 29.0538 28.5956 28.8268 28.6387 28.6074V28.6064L30.5371 18.8457L30.6533 18.25H25C23.2083 18.25 21.75 16.7917 21.75 15V3.75C21.75 1.95827 23.2083 0.5 25 0.5Z" stroke="#555555"/>
</svg>
