<svg width="36" height="23" viewBox="0 0 36 23" fill="none" xmlns="http://www.w3.org/2000/svg">
<path d="M25.1069 7.52441H10.8929C10.5783 7.52441 10.3232 7.77946 10.3232 8.09405C10.3232 8.40865 10.5783 8.66369 10.8929 8.66369H25.107C25.4216 8.66369 25.6766 8.40865 25.6766 8.09405C25.6766 7.77946 25.4215 7.52441 25.1069 7.52441Z" fill="#FF3600"/>
<path d="M4.95515 10.1064H2.84991C2.53532 10.1064 2.28027 10.3615 2.28027 10.6761C2.28027 10.9907 2.53532 11.2457 2.84991 11.2457H4.95515C5.99547 11.2457 6.87271 11.9575 7.12548 12.9197H2.99582C2.68122 12.9197 2.42618 13.1748 2.42618 13.4894C2.42618 13.8039 2.68122 14.059 2.99582 14.059H7.76827C8.08286 14.059 8.33791 13.8039 8.33791 13.4894C8.33798 11.624 6.82046 10.1064 4.95515 10.1064Z" fill="#FF3600"/>
<path d="M31.0449 11.2457H33.1502C33.4648 11.2457 33.7198 10.9907 33.7198 10.6761C33.7198 10.3615 33.4648 10.1064 33.1502 10.1064H31.0449C29.1796 10.1064 27.6621 11.624 27.6621 13.4894C27.6621 13.8039 27.9172 14.059 28.2317 14.059H33.0042C33.3188 14.059 33.5738 13.8039 33.5738 13.4894C33.5738 13.1748 33.3188 12.9197 33.0042 12.9197H28.8746C29.1274 11.9575 30.0046 11.2457 31.0449 11.2457Z" fill="#FF3600"/>
<path d="M34.8374 7.6028C34.0389 6.76832 32.9546 6.30873 31.7841 6.30873C31.7329 6.30873 31.6818 6.31564 31.6325 6.32931L29.8018 6.83508L27.105 1.65408C26.6221 0.726557 25.4248 0 24.3793 0H11.6205C10.5749 0 9.37767 0.726557 8.89484 1.65408L6.19801 6.83508L4.36734 6.32931C4.31797 6.31564 4.26693 6.30873 4.21566 6.30873C3.04516 6.30873 1.9608 6.76832 1.16239 7.6028C0.363979 8.43729 -0.0473771 9.54087 0.00434624 10.7136L0.417753 18.9559C0.432944 19.259 0.683206 19.497 0.98671 19.497H1.17659V21.9845C1.17659 22.2991 1.43164 22.5541 1.74623 22.5541H7.73968C8.05428 22.5541 8.30932 22.2991 8.30932 21.9845V21.206C8.30932 20.8914 8.05428 20.6363 7.73968 20.6363C7.42509 20.6363 7.17004 20.8914 7.17004 21.206V21.4148H2.3158V19.497H33.684V21.4148H28.8298V21.206C28.8298 20.8914 28.5748 20.6363 28.2602 20.6363C27.9456 20.6363 27.6905 20.8914 27.6905 21.206V21.9845C27.6905 22.2991 27.9456 22.5541 28.2602 22.5541H34.2536C34.5682 22.5541 34.8233 22.2991 34.8233 21.9845V19.497H35.0132C35.3167 19.497 35.5669 19.2591 35.5821 18.9559L35.9956 10.7103C36.0472 9.54087 35.6359 8.43729 34.8374 7.6028ZM34.8576 10.6566L34.4714 18.3577H1.52848L1.14241 10.66C1.10466 9.8042 1.40407 8.99819 1.98563 8.3905C2.55026 7.80035 3.31343 7.46768 4.14153 7.449L6.33305 8.05449C6.33442 8.05487 6.33579 8.05525 6.33723 8.05563L8.46267 8.64281C8.7658 8.72659 9.07963 8.54871 9.16341 8.24543C9.24718 7.94223 9.0693 7.62847 8.76602 7.5447L7.32096 7.14549L9.90546 2.18028C10.1941 1.62583 10.9955 1.13943 11.6206 1.13943H24.3793C25.0043 1.13943 25.8059 1.62583 26.0945 2.18028L28.679 7.14549L27.2339 7.5447C26.9306 7.62847 26.7528 7.94223 26.8365 8.24543C26.9203 8.54871 27.2341 8.72651 27.5373 8.64281L31.8584 7.449C32.6865 7.46776 33.4497 7.80043 34.0143 8.3905C34.5958 8.99819 34.8952 9.8042 34.8576 10.6566Z" fill="#FF3600"/>
<path d="M31.7845 5.16955H33.769C34.0836 5.16955 34.3386 4.91451 34.3386 4.59991C34.3386 4.28532 34.0836 4.03027 33.769 4.03027H31.7845C31.4699 4.03027 31.2148 4.28532 31.2148 4.59991C31.2148 4.91451 31.4699 5.16955 31.7845 5.16955Z" fill="#FF3600"/>
<path d="M2.23077 5.16955H4.21525C4.52984 5.16955 4.78489 4.91451 4.78489 4.59991C4.78489 4.28532 4.52984 4.03027 4.21525 4.03027H2.23077C1.91618 4.03027 1.66113 4.28532 1.66113 4.59991C1.66113 4.91451 1.91618 5.16955 2.23077 5.16955Z" fill="#FF3600"/>
<path d="M24.318 14.5569H11.6818C11.3672 14.5569 11.1122 14.8119 11.1122 15.1265V16.649C11.1122 16.9636 11.3672 17.2186 11.6818 17.2186C11.9964 17.2186 12.2515 16.9636 12.2515 16.649V15.6962H23.7484V16.649C23.7484 16.9636 24.0035 17.2186 24.318 17.2186C24.6326 17.2186 24.8877 16.9636 24.8877 16.649V15.1265C24.8877 14.8119 24.6326 14.5569 24.318 14.5569Z" fill="#FF3600"/>
<path d="M21.1593 11.7018C21.4739 11.7018 21.7289 11.4467 21.7289 11.1321C21.7289 10.8175 21.4739 10.5625 21.1593 10.5625H14.8411C14.5265 10.5625 14.2715 10.8175 14.2715 11.1321C14.2715 11.4467 14.5265 11.7018 14.8411 11.7018H21.1593Z" fill="#FF3600"/>
</svg>
