<svg width="49" height="19" viewBox="0 0 49 19" fill="none" xmlns="http://www.w3.org/2000/svg">
<path d="M33.5395 7.25H29.834V8.20014H33.5395V7.25Z" fill="#FF3600"/>
<path d="M8.99783 18.1001C11.8102 18.1001 14.1001 15.8103 14.1001 12.9979C14.1001 10.1855 11.8102 7.89563 8.99783 7.89563C6.18543 7.89563 3.89561 10.1855 3.89561 12.9979C3.89561 15.8103 6.18543 18.1001 8.99783 18.1001ZM8.99783 8.84577C11.2877 8.84577 13.1499 10.708 13.1499 12.9979C13.1499 15.2877 11.2877 17.15 8.99783 17.15C6.70801 17.15 4.84574 15.2877 4.84574 12.9979C4.84574 10.708 6.70801 8.84577 8.99783 8.84577Z" fill="#FF3600"/>
<path d="M39.8015 18.1C42.6139 18.1 44.9038 15.8101 44.9038 12.9977C44.9038 10.1853 42.6139 7.89551 39.8015 7.89551C36.9891 7.89551 34.6993 10.1853 34.6993 12.9977C34.6993 15.8101 36.9891 18.1 39.8015 18.1ZM39.8015 8.84564C42.0914 8.84564 43.9536 10.7079 43.9536 12.9977C43.9536 15.2876 42.0914 17.1498 39.8015 17.1498C37.5117 17.1498 35.6495 15.2876 35.6495 12.9977C35.6495 10.7079 37.5117 8.84564 39.8015 8.84564Z" fill="#FF3600"/>
<path d="M40.9509 15.4967C41.92 15.0501 42.5471 14.0715 42.5471 12.9978C42.5471 11.4871 41.3119 10.252 39.8012 10.252C38.2905 10.252 37.0553 11.4871 37.0553 12.9978C37.0553 14.0715 37.6824 15.0501 38.6515 15.4967L39.0506 14.6321C38.414 14.3375 38.0054 13.7009 38.0054 12.9978C38.0054 12.0097 38.813 11.2021 39.8012 11.2021C40.7893 11.2021 41.5969 12.0097 41.5969 12.9978C41.5969 13.7009 41.1884 14.3375 40.5518 14.6321L40.9509 15.4967Z" fill="#FF3600"/>
<path d="M9.01725 15.7437C10.528 15.7437 11.7631 14.5086 11.7631 12.9978C11.7631 11.4871 10.528 10.252 9.01725 10.252C7.50654 10.252 6.27136 11.4871 6.27136 12.9978C6.27136 14.5086 7.50654 15.7437 9.01725 15.7437ZM9.01725 11.2021C10.0054 11.2021 10.813 12.0097 10.813 12.9978C10.813 13.986 10.0054 14.7936 9.01725 14.7936C8.02911 14.7936 7.2215 13.986 7.2215 12.9978C7.2215 12.0097 8.02911 11.2021 9.01725 11.2021Z" fill="#FF3600"/>
<path d="M4.40863 14.4896L4.56065 13.5489L1.78625 13.1024L0.978638 10.4515C2.35633 7.76261 5.07372 6.09987 8.10465 6.09987H35.174C35.307 6.09987 35.4305 6.04286 35.5256 5.94785L36.6372 4.72217L47.6968 7.88612V9.1213L46.7182 13.1309L44.2573 13.5299L44.4093 14.4706L47.1837 14.024C47.3738 13.9955 47.5258 13.853 47.5733 13.6724L48.6469 9.30183C48.6469 9.25432 48.6469 9.21631 48.6469 9.17831V7.53457C48.6469 7.32554 48.5044 7.13552 48.3049 7.07851L36.6182 3.73403C36.4472 3.68652 36.2572 3.73403 36.1337 3.86705L34.965 5.14973H8.11415C4.69367 5.14973 1.61523 7.05951 0.0950127 10.1189L0.0570068 10.195C0 10.2995 -0.00950241 10.4325 0.0285034 10.5465L0.978638 13.6629C1.03565 13.834 1.17817 13.967 1.35869 13.9955L4.40863 14.4896Z" fill="#FF3600"/>
<path d="M35.7729 14.793H13.0457V15.7431H35.7729V14.793Z" fill="#FF3600"/>
<path d="M15.3918 8.73535L14.4987 9.0603L16.0194 13.2401L16.9126 12.9152L15.3918 8.73535Z" fill="#FF3600"/>
<path d="M17.3881 8.73438L16.495 9.05932L18.0158 13.2392L18.9089 12.9142L17.3881 8.73438Z" fill="#FF3600"/>
<path d="M18.452 6.09987H21.6634C21.844 6.09987 22.0055 6.00486 22.0815 5.84333L22.9176 4.2186L22.072 3.78154L21.3689 5.14973H19.4591L22.9271 0.950136H23.5447L23.0601 1.88127L23.9058 2.31833L24.7419 0.693599C24.8179 0.551079 24.8084 0.370554 24.7229 0.228033C24.6374 0.0855131 24.4853 0 24.3143 0H22.6991C22.5566 0 22.4235 0.0665098 22.3285 0.171025L18.0814 5.32076C17.9674 5.46328 17.9389 5.66281 18.0149 5.82433C18.1099 5.99536 18.2715 6.09987 18.452 6.09987Z" fill="#FF3600"/>
<path d="M48.6469 11.4307H45.5115V12.3808H48.6469V11.4307Z" fill="#FF3600"/>
<path d="M2.66061 11.4307H0.000226974V12.3808H2.66061V11.4307Z" fill="#FF3600"/>
<path d="M31.687 6.1004H35.174C35.307 6.1004 35.4305 6.04339 35.5256 5.94837L36.8367 4.50417C36.9603 4.36165 36.9983 4.16212 36.9223 3.9911C36.8462 3.82007 36.6752 3.70605 36.4852 3.70605H33.1312C32.0766 3.70605 31.2119 4.56118 31.2119 5.62533C31.2119 5.89137 31.421 6.1004 31.687 6.1004ZM34.965 5.15026H32.2856C32.4471 4.85572 32.7702 4.65619 33.1312 4.65619H35.4115L34.965 5.15026Z" fill="#FF3600"/>
<path d="M2.49893 8.22802H5.0643C6.46099 8.22802 7.60116 7.08786 7.60116 5.69116C7.60116 5.55814 7.54415 5.42512 7.43963 5.33961C7.33512 5.2541 7.2021 5.20659 7.06908 5.22559C5.27333 5.43462 3.53458 6.21374 2.18539 7.40141C2.03336 7.53443 1.98586 7.74345 2.05237 7.92398C2.11888 8.10451 2.2994 8.22802 2.49893 8.22802ZM6.54651 6.26124C6.31847 6.85033 5.73889 7.27789 5.0643 7.27789H3.94314C4.74125 6.79332 5.62488 6.44177 6.54651 6.26124Z" fill="#FF3600"/>
</svg>
