<svg width="44" height="26" viewBox="0 0 44 26" fill="none" xmlns="http://www.w3.org/2000/svg">
<path fill-rule="evenodd" clip-rule="evenodd" d="M43.0565 20.9263H38.8684C38.5626 20.9263 38.3148 20.6785 38.3148 20.3727C38.3148 18.1323 36.4923 16.3098 34.2521 16.3098C32.0117 16.3098 30.1891 18.1324 30.1891 20.3727C30.1891 20.6785 29.9413 20.9263 29.6355 20.9263H13.9749C13.6691 20.9263 13.4213 20.6785 13.4213 20.3727C13.4213 18.1323 11.5987 16.3098 9.35835 16.3098C7.11814 16.3098 5.29562 18.1324 5.29562 20.3727C5.29562 20.6785 5.04774 20.9263 4.74191 20.9263H3.25983C1.46236 20.9263 0 19.4639 0 17.6663V9.07034C0 8.76451 0.247885 8.51672 0.553717 8.51672H37.4056C40.8268 8.51672 43.6102 11.3001 43.6102 14.7213V20.3727C43.6101 20.6785 43.3623 20.9263 43.0565 20.9263ZM39.3927 19.819H42.5029V14.7213C42.5029 11.9106 40.2162 9.62388 37.4056 9.62388H1.10746V17.6663C1.10746 18.8534 2.07314 19.8189 3.25995 19.8189H4.21789C4.49505 17.2275 6.69482 15.2024 9.35857 15.2024C12.0224 15.2024 14.2221 17.2275 14.4994 19.8189H29.1115C29.3887 17.2275 31.5884 15.2024 34.2522 15.2024C36.9159 15.2025 39.1154 17.2275 39.3927 19.819Z" fill="#FF3600"/>
<path fill-rule="evenodd" clip-rule="evenodd" d="M33.9033 9.62408H0.553717C0.247885 9.62408 0 9.37619 0 9.07046V2.94174C0 1.31972 1.3196 0.00012207 2.94162 0.00012207H25.3871C30.3883 0.00012207 34.4571 4.06909 34.4571 9.07046C34.457 9.37619 34.209 9.62408 33.9033 9.62408ZM1.1072 8.51684H33.3306C33.0455 4.38308 29.5916 1.10746 25.3868 1.10746H2.94139C1.92994 1.10746 1.10721 1.93028 1.10721 2.94184L1.1072 8.51684Z" fill="#FF3600"/>
<path fill-rule="evenodd" clip-rule="evenodd" d="M9.35837 25.5426C6.50759 25.5426 4.18829 23.2233 4.18829 20.3726C4.18829 17.5217 6.50759 15.2024 9.35837 15.2024C12.2092 15.2024 14.5285 17.5217 14.5285 20.3726C14.5285 23.2234 12.2092 25.5426 9.35837 25.5426ZM9.35837 16.3097C7.11815 16.3097 5.29563 18.1324 5.29563 20.3726C5.29563 22.6128 7.11815 24.4353 9.35837 24.4353C11.5987 24.4353 13.4213 22.6128 13.4213 20.3726C13.4213 18.1323 11.5987 16.3097 9.35837 16.3097Z" fill="#FF3600"/>
<path fill-rule="evenodd" clip-rule="evenodd" d="M34.2519 25.5426C31.4011 25.5426 29.0818 23.2233 29.0818 20.3726C29.0818 17.5217 31.4011 15.2024 34.2519 15.2024C37.1028 15.2024 39.422 17.5217 39.422 20.3726C39.422 23.2234 37.1028 25.5426 34.2519 25.5426ZM34.2519 16.3097C32.0116 16.3097 30.1891 18.1324 30.1891 20.3726C30.1891 22.6128 32.0116 24.4353 34.2519 24.4353C36.4922 24.4353 38.3148 22.6128 38.3148 20.3726C38.3148 18.1323 36.4922 16.3097 34.2519 16.3097Z" fill="#FF3600"/>
<path fill-rule="evenodd" clip-rule="evenodd" d="M9.3582 23.0051C7.90651 23.0051 6.72534 21.8241 6.72534 20.3722C6.72534 18.9204 7.90652 17.7394 9.3582 17.7394C10.8101 17.7394 11.9912 18.9205 11.9912 20.3722C11.9912 21.8241 10.8101 23.0051 9.3582 23.0051ZM9.3582 18.8466C8.51706 18.8466 7.83266 19.531 7.83266 20.3722C7.83266 21.2135 8.51706 21.8979 9.3582 21.8979C10.1994 21.8979 10.8839 21.2135 10.8839 20.3722C10.8839 19.531 10.1995 18.8466 9.3582 18.8466Z" fill="#FF3600"/>
<path fill-rule="evenodd" clip-rule="evenodd" d="M34.2519 23.0051C32.8001 23.0051 31.6189 21.8241 31.6189 20.3722C31.6189 18.9204 32.8001 17.7394 34.2519 17.7394C35.7037 17.7394 36.8847 18.9205 36.8847 20.3722C36.8847 21.8241 35.7036 23.0051 34.2519 23.0051ZM34.2519 18.8466C33.4106 18.8466 32.7262 19.531 32.7262 20.3722C32.7262 21.2135 33.4106 21.8979 34.2519 21.8979C35.0931 21.8979 35.7775 21.2135 35.7775 20.3722C35.7775 19.531 35.0931 18.8466 34.2519 18.8466Z" fill="#FF3600"/>
<path fill-rule="evenodd" clip-rule="evenodd" d="M17.2285 9.62394C16.9227 9.62394 16.6748 9.37605 16.6748 9.07032V0.553717C16.6748 0.247885 16.9227 0 17.2285 0C17.5343 0 17.7821 0.247885 17.7821 0.553717V9.07032C17.7821 9.37605 17.5343 9.62394 17.2285 9.62394Z" fill="#FF3600"/>
<path fill-rule="evenodd" clip-rule="evenodd" d="M43.0333 17.856H40.7773C40.4715 17.856 40.2236 17.6081 40.2236 17.3023V14.208C40.2236 13.9022 40.4715 13.6544 40.7773 13.6544H43.0333C43.3391 13.6544 43.5869 13.9023 43.5869 14.208V17.3024C43.5869 17.6081 43.339 17.856 43.0333 17.856ZM41.3309 16.7487H42.4795V14.7617H41.3309V16.7487Z" fill="#FF3600"/>
</svg>
