<svg width="16" height="12" viewBox="0 0 16 12" fill="none" xmlns="http://www.w3.org/2000/svg">
<path d="M15.6738 1.75781C15.7715 2.20703 15.8496 2.72461 15.9082 3.31055C15.9473 3.91602 15.9766 4.45312 15.9961 4.92188C15.9961 5.37109 15.9961 5.60547 15.9961 5.625C15.9961 5.66406 15.9961 5.9082 15.9961 6.35742C15.9766 6.82617 15.9473 7.35352 15.9082 7.93945C15.8496 8.54492 15.7715 9.07227 15.6738 9.52148C15.4395 10.2441 14.9609 10.7129 14.2383 10.9277C13.7695 11.0254 13.0469 11.1035 12.0703 11.1621C11.0938 11.2012 10.1855 11.2305 9.3457 11.25C8.50586 11.25 8.05664 11.25 7.99805 11.25C7.93945 11.25 7.49023 11.25 6.65039 11.25C5.81055 11.2305 4.90234 11.2012 3.92578 11.1621C2.94922 11.1035 2.22656 11.0254 1.75781 10.9277C1.03516 10.7129 0.556641 10.2441 0.322266 9.52148C0.224609 9.07227 0.146484 8.54492 0.0878906 7.93945C0.0488281 7.35352 0.0195312 6.82617 0 6.35742C0 5.9082 0 5.66406 0 5.625C0 5.60547 0 5.37109 0 4.92188C0.0195312 4.45312 0.0488281 3.91602 0.0878906 3.31055C0.146484 2.72461 0.224609 2.20703 0.322266 1.75781C0.556641 1.03516 1.03516 0.556641 1.75781 0.322266C2.22656 0.224609 2.94922 0.146484 3.92578 0.0878906C4.90234 0.0488281 5.81055 0.0195313 6.65039 0C7.49023 0 7.93945 0 7.99805 0C8.05664 0 8.50586 0 9.3457 0C10.1855 0.0195313 11.0938 0.0488281 12.0703 0.0878906C13.0469 0.146484 13.7695 0.224609 14.2383 0.322266C14.9609 0.556641 15.4395 1.03516 15.6738 1.75781ZM6.35742 8.02734L10.5469 5.625L6.35742 3.25195V8.02734Z" fill="white"/>
</svg>
