<svg width="42" height="40" viewBox="0 0 42 40" fill="none" xmlns="http://www.w3.org/2000/svg">
<path d="M28.8179 27.3327L29.7999 26.3532L27.5192 24.0526L26.5415 25.0321L28.8179 27.3327ZM33.0929 25.9424L37.2085 28.1889L38.7483 25.3391L34.6349 23.0947L33.0929 25.9424ZM37.9989 32.6517L34.9407 35.707L37.2171 38.0054L40.2753 34.9523L37.9989 32.6517ZM33.0756 36.6886C29.9529 36.9827 21.8767 36.721 13.1286 27.99L10.85 30.2884C20.395 39.8173 29.4812 40.2844 33.3771 39.919L33.0756 36.6886ZM13.1286 27.99C4.79183 19.6655 3.40919 12.6664 3.2369 9.62844L0.0107407 9.81223C0.226105 13.635 1.93825 21.3931 10.85 30.2884L13.1286 27.99ZM16.0898 14.6275L16.7079 14.0091L14.4337 11.7107L13.8156 12.3269L16.0898 14.6275ZM17.199 6.14943L14.4854 2.50825L11.8989 4.45425L14.6124 8.09326L17.199 6.14943ZM5.35178 1.71472L1.97056 5.08778L4.24911 7.38838L7.62818 4.01532L5.35178 1.71472ZM14.9527 13.4772C13.8113 12.3269 13.8113 12.3269 13.8113 12.3312H13.807L13.8005 12.3399C13.6988 12.4441 13.6073 12.5577 13.527 12.6793C13.4107 12.8523 13.2836 13.0793 13.176 13.3669C12.9137 14.1092 12.8484 14.9073 12.9864 15.6827C13.275 17.553 14.5586 20.0244 17.8451 23.3066L20.1236 21.006C17.0461 17.9357 16.3138 16.0675 16.1781 15.1853C16.1135 14.7659 16.1803 14.5583 16.1997 14.5107C16.2105 14.4805 16.2148 14.4783 16.1997 14.4978C16.1807 14.5277 16.1591 14.556 16.1351 14.5821L16.1135 14.6037C16.1066 14.6104 16.0994 14.6169 16.092 14.6232L14.9527 13.4772ZM17.8451 23.3066C21.1337 26.5889 23.6082 27.8689 25.4733 28.1543C26.4273 28.3014 27.1962 28.1846 27.7798 27.9662C28.1062 27.8449 28.4115 27.6727 28.6844 27.4559C28.7214 27.4248 28.7573 27.3924 28.792 27.3586L28.8071 27.3457L28.8136 27.3392L28.8157 27.3348C28.8157 27.3348 28.8179 27.3327 27.6786 26.1824C26.5372 25.0321 26.5436 25.0299 26.5436 25.0299L26.5479 25.0256L26.5522 25.0213L26.5652 25.0105L26.5867 24.9888C26.6126 24.9655 26.6399 24.9438 26.6685 24.924C26.6901 24.9088 26.6836 24.9153 26.6535 24.9283C26.5996 24.9478 26.3886 25.0148 25.9643 24.9499C25.0727 24.8115 23.199 24.0764 20.1236 21.006L17.8451 23.3066ZM14.4854 2.50609C12.2887 -0.434528 7.97276 -0.901567 5.35178 1.71472L7.62818 4.01532C8.77392 2.8715 10.807 2.99043 11.8989 4.45425L14.4854 2.50609ZM3.23905 9.6306C3.19598 8.88247 3.53841 8.09975 4.24911 7.39054L1.9684 5.08994C0.811897 6.24457 -0.0990952 7.8792 0.0107407 9.81223L3.23905 9.6306ZM34.9407 35.707C34.3506 36.2994 33.7131 36.6324 33.0778 36.6908L33.3771 39.919C34.9601 39.7698 36.2544 38.9697 37.2192 38.0076L34.9407 35.707ZM16.7079 14.0091C18.8293 11.8923 18.9865 8.54733 17.2011 6.15159L14.6146 8.09542C15.4825 9.26086 15.3533 10.7895 14.4315 11.7128L16.7079 14.0091ZM37.2106 28.1911C38.9702 29.1511 39.2437 31.4128 38.001 32.6539L40.2796 34.9523C43.1655 32.0701 42.276 27.2635 38.7505 25.3413L37.2106 28.1911ZM29.7999 26.3554C30.6269 25.5294 31.9579 25.3261 33.095 25.9445L34.637 23.0969C32.3025 21.8212 29.408 22.1736 27.5214 24.0548L29.7999 26.3554Z" fill="#FF3600"/>
</svg>
