<svg width="23" height="15" viewBox="0 0 23 15" fill="none" xmlns="http://www.w3.org/2000/svg">
<path d="M18.0376 4.66874C18.0315 4.66421 18.025 4.66011 18.0182 4.65646C16.2656 2.95041 13.8901 1.99219 11.4135 1.99219C8.93682 1.99219 6.56138 2.95041 4.8087 4.65646C4.80289 4.66118 4.79514 4.66307 4.78981 4.66874C4.78448 4.67441 4.78206 4.68149 4.77673 4.68716C3.02628 6.39572 2.04362 8.71226 2.04492 11.1272C2.0448 11.1717 2.05368 11.2159 2.07108 11.2571C2.08848 11.2983 2.11404 11.3357 2.1463 11.3672C2.17856 11.3988 2.21689 11.4238 2.25909 11.4409C2.30128 11.458 2.34652 11.4667 2.39221 11.4667H4.53891C4.58456 11.4667 4.62975 11.458 4.67192 11.4409C4.71409 11.4239 4.75239 11.3989 4.78465 11.3674C4.8169 11.3359 4.84247 11.2985 4.8599 11.2574C4.87732 11.2163 4.88626 11.1722 4.8862 11.1277C4.8862 9.43983 5.57389 7.82112 6.79799 6.62764C8.02209 5.43415 9.68233 4.76366 11.4135 4.76366C13.1446 4.76366 14.8048 5.43415 16.0289 6.62764C17.2531 7.82112 17.9407 9.43983 17.9407 11.1277C17.9407 11.1722 17.9496 11.2163 17.9671 11.2575C17.9845 11.2987 18.0102 11.3361 18.0425 11.3676C18.0748 11.3991 18.1131 11.424 18.1554 11.4411C18.1976 11.4581 18.2428 11.4668 18.2885 11.4667H20.4347C20.4804 11.4668 20.5257 11.4581 20.5679 11.4411C20.6101 11.424 20.6485 11.3991 20.6808 11.3676C20.7131 11.3361 20.7387 11.2987 20.7562 11.2575C20.7736 11.2163 20.7826 11.1722 20.7825 11.1277C20.7831 9.93172 20.5421 8.74737 20.0731 7.64228C19.6041 6.5372 18.9164 5.53303 18.0492 4.68716C18.0457 4.68083 18.0418 4.67468 18.0376 4.66874ZM16.2629 5.9202C15.0269 4.81913 13.4338 4.17572 11.7612 4.10204V2.6853C13.8177 2.76349 15.7778 3.55533 17.2883 4.91809L16.2629 5.9202ZM6.56451 5.9202L5.53863 4.91997C7.04937 3.55725 9.00963 2.76543 11.0662 2.68719V4.10393C9.39385 4.17701 7.8008 4.81975 6.56451 5.9202ZM4.20809 10.7886H2.74676C2.83034 8.78237 3.64688 6.8714 5.04894 5.40072L6.07289 6.39953C4.9435 7.60462 4.28357 9.15785 4.20809 10.7886ZM18.6193 10.7886C18.5436 9.1579 17.8837 7.60473 16.7545 6.39953L17.7785 5.40072C19.1804 6.87151 19.9969 8.78242 20.0807 10.7886H18.6193Z" fill="#FF3600"/>
<path d="M16.2744 10.7887H12.5449C12.4616 10.5227 12.2831 10.2946 12.0418 10.1461C11.8006 9.99758 11.5126 9.93846 11.2305 9.97951C10.9483 10.0206 10.6906 10.159 10.5043 10.3698C10.318 10.5805 10.2156 10.8494 10.2156 11.1276C10.2156 11.4058 10.318 11.6747 10.5043 11.8854C10.6906 12.0961 10.9483 12.2346 11.2305 12.2757C11.5126 12.3167 11.8006 12.2576 12.0418 12.1091C12.2831 11.9605 12.4616 11.7325 12.5449 11.4664H16.2744C16.3212 11.4681 16.3678 11.4606 16.4115 11.4444C16.4552 11.4281 16.495 11.4034 16.5287 11.3718C16.5624 11.3401 16.5892 11.3022 16.6075 11.2603C16.6258 11.2183 16.6352 11.1732 16.6352 11.1276C16.6352 11.082 16.6258 11.0369 16.6075 10.9949C16.5892 10.953 16.5624 10.915 16.5287 10.8834C16.495 10.8518 16.4552 10.8271 16.4115 10.8108C16.3678 10.7946 16.3212 10.787 16.2744 10.7887ZM11.4129 11.6086C11.3149 11.6086 11.2191 11.5802 11.1376 11.5272C11.0561 11.4741 10.9926 11.3986 10.9551 11.3103C10.9176 11.2221 10.9078 11.1249 10.9269 11.0312C10.946 10.9375 10.9932 10.8514 11.0625 10.7838C11.1318 10.7163 11.2201 10.6703 11.3162 10.6516C11.4123 10.633 11.512 10.6426 11.6025 10.6791C11.6931 10.7157 11.7704 10.7776 11.8249 10.8571C11.8793 10.9365 11.9084 11.0299 11.9084 11.1255C11.9083 11.2535 11.856 11.3764 11.7631 11.4669C11.6702 11.5575 11.5443 11.6084 11.4129 11.6086Z" fill="#FF3600"/>
<path d="M11.413 0C5.11972 0 0 4.99166 0 11.1271C0.00221433 12.3685 0.218342 13.6008 0.639359 14.7724C0.662939 14.8389 0.707201 14.8965 0.765978 14.9373C0.824755 14.9781 0.895121 15 0.967273 15H21.8588C21.931 15.0001 22.0015 14.9783 22.0604 14.9375C22.1193 14.8966 22.1636 14.8389 22.1872 14.7724C22.6079 13.6009 22.8238 12.3688 22.8261 11.1276C22.8261 4.99166 17.7064 0 11.413 0ZM21.6089 14.3219H1.2172C0.87281 13.2901 0.69646 12.2121 0.694576 11.1271C0.694576 5.36568 5.50285 0.677675 11.4126 0.677675C17.3223 0.677675 22.131 5.3652 22.131 11.1271C22.1291 12.2121 21.953 13.29 21.6089 14.3219Z" fill="#FF3600"/>
</svg>
