<svg width="17" height="11" viewBox="0 0 17 11" fill="none" xmlns="http://www.w3.org/2000/svg">
<path d="M6.79688 4.77539C8.06641 5.18555 8.70117 6.06445 8.70117 7.41211C8.66211 8.4668 8.28125 9.22852 7.55859 9.69727C6.85547 10.1855 6.01562 10.4297 5.03906 10.4297H0V0.0292969H4.89258C5.81055 0.00976562 6.5918 0.185547 7.23633 0.556641C7.86133 0.908203 8.18359 1.5918 8.20312 2.60742C8.20312 3.64258 7.73438 4.36523 6.79688 4.77539ZM2.28516 1.81641V4.24805H4.59961C5.00977 4.24805 5.3418 4.15039 5.5957 3.95508C5.84961 3.75977 5.97656 3.4375 5.97656 2.98828C5.97656 2.51953 5.82031 2.20703 5.50781 2.05078C5.21484 1.875 4.85352 1.79687 4.42383 1.81641H2.28516ZM4.7168 8.67188C5.20508 8.67188 5.60547 8.57422 5.91797 8.37891C6.23047 8.16406 6.39648 7.80273 6.41602 7.29492C6.37695 6.25977 5.83008 5.76172 4.77539 5.80078H2.28516V8.67188H4.7168ZM15.2344 1.61133V0.585938H11.0156V1.61133H15.2344ZM16.875 6.76758C16.875 6.9043 16.8652 7.03125 16.8457 7.14844H11.4258C11.4453 8.39844 12.0605 9.04297 13.2715 9.08203C13.6035 9.08203 13.9355 8.99414 14.2676 8.81836C14.5801 8.66211 14.7949 8.41797 14.9121 8.08594H16.7285C16.1816 9.78516 15.0098 10.6348 13.2129 10.6348C12.0215 10.6152 11.084 10.2441 10.4004 9.52148C9.7168 8.81836 9.375 7.87109 9.375 6.67969C9.39453 5.52734 9.74609 4.58008 10.4297 3.83789C11.1328 3.0957 12.0605 2.71484 13.2129 2.69531C14.4043 2.73437 15.3125 3.13477 15.9375 3.89648C16.5625 4.67773 16.875 5.63477 16.875 6.76758ZM11.4258 5.85938H14.7949C14.7168 4.82422 14.1699 4.28711 13.1543 4.24805C12.1191 4.28711 11.543 4.82422 11.4258 5.85938Z" fill="white"/>
</svg>
