<svg width="46" height="18" viewBox="0 0 46 18" fill="none" xmlns="http://www.w3.org/2000/svg">
<path d="M12.7417 12.742C12.7417 14.69 11.1626 16.2692 9.21454 16.2692C7.26666 16.2692 5.6875 14.69 5.6875 12.742C5.6875 10.7941 7.26666 9.21491 9.21454 9.21491C11.1626 9.21491 12.7417 10.7941 12.7417 12.742Z" stroke="#FF3600" stroke-width="1.5" stroke-miterlimit="10" stroke-linecap="round" stroke-linejoin="round"/>
<path d="M12.7421 14.153H33.1992" stroke="#FF3600" stroke-width="1.5" stroke-miterlimit="10" stroke-linecap="round" stroke-linejoin="round"/>
<path d="M9.71339 12.2433L8.71582 13.2408" stroke="#FF3600" stroke-width="1.5" stroke-miterlimit="10" stroke-linecap="round" stroke-linejoin="round"/>
<path d="M40.2535 12.7422C40.2535 14.6901 38.6744 16.2693 36.7264 16.2693C34.7785 16.2693 33.1993 14.6901 33.1993 12.7422C33.1993 10.7942 34.7785 9.21503 36.7264 9.21503C38.6744 9.21503 40.2535 10.7942 40.2535 12.7422Z" stroke="#FF3600" stroke-width="1.5" stroke-miterlimit="10" stroke-linecap="round" stroke-linejoin="round"/>
<path d="M36.2275 12.2432L37.2251 13.2407" stroke="#FF3600" stroke-width="1.5" stroke-miterlimit="10" stroke-linecap="round" stroke-linejoin="round"/>
<path d="M5.68794 13.4475L2.28489 12.4752C1.37638 12.2156 0.75 11.3853 0.75 10.4404V6.22794C0.75 5.51646 1.27985 4.9163 1.98587 4.82804L4.59489 4.50191C5.78518 4.3531 6.94159 4.00304 8.01448 3.4665L11.3623 1.79266C12.7336 1.10696 14.2458 0.750033 15.7789 0.750033H22.0638C23.8079 0.750033 25.5157 1.24741 26.9872 2.18373L32.4939 5.68797C32.4939 5.68797 38.8884 5.68797 42.8777 7.54055C43.8656 7.99938 44.486 9.00179 44.486 10.0911V12.433C44.486 13.525 43.8543 14.153 43.0752 14.153" stroke="#FF3600" stroke-width="1.5" stroke-miterlimit="10" stroke-linecap="round" stroke-linejoin="round"/>
<path d="M14.153 5.68799H12.7924C11.8569 5.68799 10.9598 5.31636 10.2983 4.65487L9.21509 3.57177" stroke="#FF3600" stroke-width="1.5" stroke-miterlimit="10" stroke-linecap="round" stroke-linejoin="round"/>
<path d="M32.4939 5.68799H16.9747" stroke="#FF3600" stroke-width="1.5" stroke-miterlimit="10" stroke-linecap="round" stroke-linejoin="round"/>
<path d="M15.5635 11.3317H30.3772" stroke="#FF3600" stroke-width="1.5" stroke-miterlimit="10" stroke-linecap="round" stroke-linejoin="round"/>
<path d="M0.75 7.80408H2.16082" stroke="#FF3600" stroke-width="1.5" stroke-miterlimit="10" stroke-linecap="round" stroke-linejoin="round"/>
<path d="M42.3701 9.21448H44.0749" stroke="#FF3600" stroke-width="1.5" stroke-miterlimit="10" stroke-linecap="round" stroke-linejoin="round"/>
<path d="M19.7959 5.68811V0.750169" stroke="#FF3600" stroke-width="1.5" stroke-miterlimit="10" stroke-linecap="round" stroke-linejoin="round"/>
<path d="M11.6836 5.401L12.602 1.34438" stroke="#FF3600" stroke-width="1.5" stroke-miterlimit="10" stroke-linecap="round" stroke-linejoin="round"/>
</svg>
