<svg width="33" height="36" viewBox="0 0 33 36" fill="none" xmlns="http://www.w3.org/2000/svg">
<path fill-rule="evenodd" clip-rule="evenodd" d="M12.353 20.9498H20.6463C20.9191 20.9498 21.1398 21.1752 21.1398 21.4538V35.496C21.1398 35.7746 20.9191 36 20.6463 36H12.353C12.0802 36 11.8595 35.7746 11.8595 35.496V21.4538C11.8595 21.1752 12.0809 20.9498 12.353 20.9498ZM27.214 2.79432V2.48904C27.214 2.2104 27.4347 1.98504 27.7075 1.98504C27.9803 1.98504 28.2009 2.2104 28.2009 2.48904V2.79432C28.4342 2.87352 28.6436 3.00744 28.8142 3.18168C29.0976 3.47112 29.2724 3.87072 29.2724 4.31208C29.2724 4.59072 29.0518 4.81608 28.779 4.81608C28.5062 4.81608 28.2855 4.59072 28.2855 4.31208C28.2855 4.14936 28.2207 4.00176 28.1163 3.89448C28.012 3.7872 27.8675 3.72168 27.7075 3.72168C27.5482 3.72168 27.4037 3.78792 27.2986 3.89448C27.1943 4.00104 27.1294 4.14864 27.1294 4.31208C27.1294 4.74768 27.4756 4.83192 27.821 4.91616C28.5463 5.09256 29.2724 5.26896 29.2724 6.50088C29.2724 6.94224 29.0969 7.34184 28.8142 7.63128C28.6443 7.8048 28.435 7.93872 28.2009 8.01864V8.32392C28.2009 8.60256 27.9803 8.82792 27.7075 8.82792C27.4347 8.82792 27.214 8.60256 27.214 8.32392V8.01864C26.9807 7.93944 26.7714 7.80552 26.6008 7.63128C26.3174 7.34184 26.1426 6.94224 26.1426 6.50088C26.1426 6.22224 26.3632 5.99688 26.636 5.99688C26.9088 5.99688 27.1294 6.22224 27.1294 6.50088C27.1294 6.6636 27.1943 6.8112 27.2986 6.91848C27.403 7.02504 27.5475 7.09128 27.7075 7.09128C27.8668 7.09128 28.0113 7.02504 28.1163 6.91848C28.2214 6.81192 28.2855 6.66432 28.2855 6.50088C28.2855 6.06528 27.9394 5.98104 27.594 5.8968C26.8686 5.7204 26.1426 5.544 26.1426 4.31208C26.1426 3.87072 26.3174 3.47112 26.6008 3.18168C26.7714 3.00744 26.9807 2.87352 27.214 2.79432ZM27.7075 0C26.2462 0 24.9231 0.6048 23.9651 1.58328C23.0071 2.56176 22.415 3.9132 22.415 5.40576C22.415 6.89832 23.0071 8.24976 23.9651 9.22824C24.9231 10.2067 26.2462 10.8115 27.7075 10.8115C29.1688 10.8115 30.4919 10.2067 31.4499 9.22824C32.4079 8.24976 33 6.89832 33 5.40576C33 3.9132 32.4079 2.56176 31.4499 1.58328C30.4919 0.6048 29.1688 0 27.7075 0ZM30.752 2.29608C29.9731 1.50048 28.8967 1.008 27.7075 1.008C26.5183 1.008 25.4419 1.50048 24.6629 2.29608C23.884 3.09168 23.4018 4.19112 23.4018 5.40576C23.4018 6.6204 23.884 7.71984 24.6629 8.51544C25.4419 9.31104 26.5183 9.80352 27.7075 9.80352C28.8967 9.80352 29.9731 9.31104 30.752 8.51544C31.531 7.71984 32.0131 6.6204 32.0131 5.40576C32.0131 4.19112 31.531 3.09168 30.752 2.29608ZM16.0066 10.3313V10.026C16.0066 9.74736 16.2272 9.522 16.5 9.522C16.7728 9.522 16.9934 9.74736 16.9934 10.026V10.3313C17.2268 10.4105 17.4361 10.5444 17.6067 10.7186C17.8901 11.0081 18.0649 11.4077 18.0649 11.849C18.0649 12.1277 17.8443 12.353 17.5715 12.353C17.2987 12.353 17.078 12.1277 17.078 11.849C17.078 11.6863 17.0132 11.5387 16.9089 11.4314C16.8045 11.3242 16.66 11.2586 16.5 11.2586C16.3407 11.2586 16.1962 11.3249 16.0911 11.4314C15.9868 11.538 15.922 11.6856 15.922 11.849C15.922 12.2846 16.2681 12.3689 16.6135 12.4531C17.3389 12.6295 18.0649 12.8059 18.0649 14.0378C18.0649 14.4792 17.8894 14.8788 17.6067 15.1682C17.4368 15.3418 17.2275 15.4757 16.9934 15.5556V15.8609C16.9934 16.1395 16.7728 16.3649 16.5 16.3649C16.2272 16.3649 16.0066 16.1395 16.0066 15.8609V15.5556C15.7732 15.4764 15.5639 15.3425 15.3933 15.1682C15.1099 14.8788 14.9351 14.4792 14.9351 14.0378C14.9351 13.7592 15.1557 13.5338 15.4285 13.5338C15.7013 13.5338 15.922 13.7592 15.922 14.0378C15.922 14.2006 15.9868 14.3482 16.0911 14.4554C16.1955 14.562 16.34 14.6282 16.5 14.6282C16.66 14.6282 16.8038 14.562 16.9089 14.4554C17.0132 14.3489 17.078 14.2013 17.078 14.0378C17.078 13.6022 16.7319 13.518 16.3865 13.4338C15.6611 13.2574 14.9351 13.081 14.9351 11.849C14.9351 11.4077 15.1099 11.0081 15.3933 10.7186C15.5639 10.5444 15.7732 10.4105 16.0066 10.3313ZM16.5 7.53696C15.0387 7.53696 13.7156 8.14176 12.7576 9.12024C11.7996 10.0987 11.2075 11.4502 11.2075 12.9427C11.2075 14.4353 11.7996 15.7867 12.7576 16.7652C13.7156 17.7437 15.0387 18.3485 16.5 18.3485C17.9613 18.3485 19.2844 17.7437 20.2424 16.7652C21.2004 15.7867 21.7925 14.4353 21.7925 12.9427C21.7925 11.4502 21.2004 10.0987 20.2424 9.12024C19.2844 8.14248 17.9613 7.53696 16.5 7.53696ZM19.5445 9.83304C18.7656 9.03744 17.6892 8.54496 16.5 8.54496C15.3108 8.54496 14.2344 9.03744 13.4555 9.83304C12.6765 10.6286 12.1944 11.7281 12.1944 12.9427C12.1944 14.1574 12.6765 15.2568 13.4555 16.0524C14.2344 16.848 15.3108 17.3405 16.5 17.3405C17.6892 17.3405 18.7656 16.848 19.5445 16.0524C20.3235 15.2568 20.8056 14.1574 20.8056 12.9427C20.8056 11.7281 20.3235 10.6286 19.5445 9.83304ZM4.79908 4.76064V4.45536C4.79908 4.17672 5.01972 3.95136 5.29252 3.95136C5.56532 3.95136 5.78596 4.17672 5.78596 4.45536V4.76064C6.01929 4.83984 6.22865 4.97376 6.39924 5.148C6.68262 5.43744 6.85744 5.83704 6.85744 6.2784C6.85744 6.55704 6.6368 6.7824 6.36399 6.7824C6.09119 6.7824 5.87055 6.55704 5.87055 6.2784C5.87055 6.11568 5.8057 5.96808 5.70137 5.8608C5.59704 5.75424 5.45254 5.688 5.29252 5.688C5.13321 5.688 4.9887 5.75424 4.88367 5.8608C4.77934 5.96736 4.71449 6.11496 4.71449 6.2784C4.71449 6.714 5.0606 6.79824 5.40601 6.88248C6.13137 7.05888 6.85744 7.23528 6.85744 8.4672C6.85744 8.90856 6.68191 9.30816 6.39924 9.5976C6.22935 9.77112 6.01999 9.90504 5.78596 9.98496V10.2902C5.78596 10.5689 5.56532 10.7942 5.29252 10.7942C5.01972 10.7942 4.79908 10.5689 4.79908 10.2902V9.98496C4.56575 9.90576 4.35639 9.77184 4.1858 9.5976C3.90242 9.30816 3.7276 8.90856 3.7276 8.4672C3.7276 8.18856 3.94824 7.9632 4.22104 7.9632C4.49385 7.9632 4.71449 8.18856 4.71449 8.4672C4.71449 8.62992 4.77934 8.77752 4.88367 8.8848C4.98799 8.99136 5.1325 9.0576 5.29252 9.0576C5.45183 9.0576 5.59634 8.99136 5.70137 8.8848C5.8057 8.77824 5.87055 8.63064 5.87055 8.4672C5.87055 8.0316 5.52444 7.94736 5.17903 7.86312C4.45367 7.68672 3.7276 7.51032 3.7276 6.2784C3.7276 5.83704 3.90242 5.43744 4.1858 5.148C4.35639 4.97376 4.56504 4.83984 4.79908 4.76064ZM5.29252 1.96632C3.83123 1.96632 2.5081 2.57112 1.55011 3.5496C0.59213 4.52808 0 5.87952 0 7.37208C0 8.86464 0.59213 10.2161 1.55011 11.1946C2.5081 12.173 3.83123 12.7778 5.29252 12.7778C6.75381 12.7778 8.07694 12.173 9.03493 11.1946C9.99291 10.2161 10.585 8.86464 10.585 7.37208C10.585 5.87952 9.99291 4.52808 9.03493 3.5496C8.07694 2.57112 6.75381 1.96632 5.29252 1.96632ZM8.33706 4.2624C7.55812 3.4668 6.48171 2.97432 5.29252 2.97432C4.10332 2.97432 3.02691 3.46608 2.24798 4.2624C1.46905 5.05872 0.986884 6.15744 0.986884 7.37208C0.986884 8.58672 1.46905 9.68616 2.24798 10.4818C3.02691 11.2774 4.10332 11.7698 5.29252 11.7698C6.48171 11.7698 7.55812 11.2774 8.33706 10.4818C9.11599 9.68616 9.59815 8.58672 9.59815 7.37208C9.59745 6.15744 9.11599 5.058 8.33706 4.2624ZM1.14549 15.2741H9.43884C9.71165 15.2741 9.93228 15.4994 9.93228 15.7781V35.496C9.93228 35.7746 9.71165 36 9.43884 36H1.14549C0.872688 36 0.652049 35.7746 0.652049 35.496V15.7781C0.652049 15.4994 0.873393 15.2741 1.14549 15.2741ZM8.94611 16.2821H1.63893V34.992H8.9454V16.2821H8.94611ZM31.8545 36H23.5605C23.2876 36 23.067 35.7746 23.067 35.496V14.4324C23.067 14.1538 23.2876 13.9284 23.5605 13.9284H31.8538C32.1266 13.9284 32.3472 14.1538 32.3472 14.4324V35.496C32.348 35.7746 32.1266 36 31.8545 36ZM24.0539 34.992H31.3604V14.9364H24.0539V34.992ZM20.1536 21.9578H12.8464V34.992H20.1529V21.9578H20.1536Z" fill="#FF3600"/>
</svg>
