<svg width="14" height="14" viewBox="0 0 14 14" fill="none" xmlns="http://www.w3.org/2000/svg">
<path d="M6.5625 3.19336C7.51953 3.21289 8.31055 3.54492 8.93555 4.18945C9.58008 4.81445 9.91211 5.60547 9.93164 6.5625C9.91211 7.51953 9.58008 8.31055 8.93555 8.93555C8.31055 9.58008 7.51953 9.91211 6.5625 9.93164C5.60547 9.91211 4.81445 9.58008 4.18945 8.93555C3.54492 8.31055 3.21289 7.51953 3.19336 6.5625C3.21289 5.60547 3.54492 4.81445 4.18945 4.18945C4.81445 3.54492 5.60547 3.21289 6.5625 3.19336ZM6.5625 8.75977C7.1875 8.74023 7.70508 8.52539 8.11523 8.11523C8.52539 7.70508 8.74023 7.1875 8.75977 6.5625C8.74023 5.9375 8.52539 5.41992 8.11523 5.00977C7.70508 4.59961 7.1875 4.38477 6.5625 4.36523C5.9375 4.38477 5.41992 4.59961 5.00977 5.00977C4.59961 5.41992 4.38477 5.9375 4.36523 6.5625C4.38477 7.1875 4.59961 7.70508 5.00977 8.11523C5.41992 8.52539 5.9375 8.74023 6.5625 8.75977ZM10.8691 3.04688C10.8496 2.83203 10.7715 2.64648 10.6348 2.49023C10.4785 2.35352 10.293 2.28516 10.0781 2.28516C9.84375 2.28516 9.6582 2.35352 9.52148 2.49023C9.36523 2.64648 9.28711 2.83203 9.28711 3.04688C9.32617 3.53516 9.58984 3.79883 10.0781 3.83789C10.5469 3.79883 10.8105 3.53516 10.8691 3.04688ZM13.0957 3.86719V3.83789C13.1152 4.22852 13.125 4.78516 13.125 5.50781C13.125 6.21094 13.125 6.91406 13.125 7.61719C13.125 8.32031 13.1152 8.86719 13.0957 9.25781C13.0957 10.332 12.7344 11.25 12.0117 12.0117C11.25 12.7344 10.3418 13.0859 9.28711 13.0664C8.89648 13.0859 8.33984 13.1055 7.61719 13.125C6.91406 13.125 6.21094 13.125 5.50781 13.125C4.78516 13.1055 4.23828 13.0859 3.86719 13.0664C2.79297 13.0859 1.875 12.7344 1.11328 12.0117C0.390625 11.25 0.0390625 10.332 0.0585938 9.25781C0.0195312 8.86719 0 8.32031 0 7.61719C0 6.91406 0 6.21094 0 5.50781C0 4.78516 0.0195312 4.22852 0.0585938 3.83789C0.0390625 2.7832 0.390625 1.875 1.11328 1.11328C1.89453 0.390625 2.8125 0.0292969 3.86719 0.0292969C4.23828 0.00976562 4.78516 0 5.50781 0C6.21094 0 6.91406 0 7.61719 0C8.33984 0 8.89648 0.00976562 9.28711 0.0292969C10.3418 0.0292969 11.25 0.390625 12.0117 1.11328C12.7344 1.875 13.0957 2.79297 13.0957 3.86719ZM11.6895 10.4297C11.8262 10.0391 11.9043 9.51172 11.9238 8.84766C11.9629 8.18359 11.9727 7.57812 11.9531 7.03125C11.9531 6.85547 11.9531 6.69922 11.9531 6.5625C11.9531 6.42578 11.9531 6.26953 11.9531 6.09375C11.9727 5.54688 11.9629 4.94141 11.9238 4.27734C11.9043 3.61328 11.8262 3.08594 11.6895 2.69531C11.4355 2.10938 11.0156 1.68945 10.4297 1.43555C10.0391 1.29883 9.51172 1.2207 8.84766 1.20117C8.18359 1.18164 7.57813 1.17188 7.03125 1.17188C6.85547 1.17188 6.69922 1.17188 6.5625 1.17188C6.42578 1.17188 6.26953 1.17188 6.09375 1.17188C5.54688 1.15234 4.94141 1.16211 4.27734 1.20117C3.63281 1.2207 3.10547 1.29883 2.69531 1.43555C2.10938 1.68945 1.68945 2.10938 1.43555 2.69531C1.29883 3.08594 1.2207 3.61328 1.20117 4.27734C1.18164 4.94141 1.17188 5.54688 1.17188 6.09375C1.17188 6.26953 1.17188 6.42578 1.17188 6.5625C1.17188 6.69922 1.17188 6.85547 1.17188 7.03125C1.17188 7.57812 1.18164 8.18359 1.20117 8.84766C1.2207 9.49219 1.29883 10.0195 1.43555 10.4297C1.68945 11.0156 2.10938 11.4355 2.69531 11.6895C3.10547 11.8262 3.63281 11.9043 4.27734 11.9238C4.94141 11.9434 5.54688 11.9531 6.09375 11.9531C6.26953 11.9531 6.42578 11.9531 6.5625 11.9531C6.69922 11.9531 6.85547 11.9531 7.03125 11.9531C7.57813 11.9531 8.18359 11.9434 8.84766 11.9238C9.51172 11.9043 10.0391 11.8262 10.4297 11.6895C11.0156 11.4355 11.4355 11.0156 11.6895 10.4297Z" fill="white"/>
</svg>
