<svg width="37" height="37" viewBox="0 0 37 37" fill="none" xmlns="http://www.w3.org/2000/svg">
<path d="M5.36206 20.1218C5.93437 26.1081 11.0069 30.791 17.1808 30.791C23.7381 30.791 29.054 25.5085 29.054 18.9922C29.054 18.0905 28.9518 17.2125 28.759 16.3688C28.6503 16.5004 28.4854 16.5845 28.3006 16.5845H26.4062C26.0788 16.5845 25.8135 16.3208 25.8135 15.9954V14.8192C25.8135 14.5686 25.6539 14.3451 25.4156 14.2635C25.1847 14.1845 24.9602 14.0916 24.7432 13.9862C24.5161 13.8758 24.2438 13.9212 24.065 14.0989L23.2275 14.9311C22.996 15.1611 22.6207 15.1611 22.3892 14.9311L21.0497 13.6C20.8182 13.3699 20.8182 12.997 21.0497 12.7669L21.8872 11.9346C22.0659 11.757 22.1117 11.4864 22.0006 11.2607C21.8944 11.045 21.8011 10.822 21.7215 10.5926C21.6394 10.3557 21.4145 10.1972 21.1623 10.1972H19.9786C19.6513 10.1972 19.3859 9.93343 19.3859 9.60816V7.72564C19.3859 7.61128 19.4192 7.50485 19.476 7.41449C18.7333 7.26995 17.9661 7.19336 17.1809 7.19336C11.0674 7.19336 6.03398 11.7851 5.38033 17.6872" stroke="#FF3600" stroke-width="1.5" stroke-miterlimit="10" stroke-linecap="round" stroke-linejoin="round"/>
<path d="M20.955 22.2791V15.7051L17.4663 20.6137H21.5018" stroke="#FF3600" stroke-width="1.5" stroke-miterlimit="10" stroke-linecap="round" stroke-linejoin="round"/>
<path d="M12.8572 17.6354V17.3877C12.8572 16.4584 13.6382 15.7051 14.6015 15.7051C15.5649 15.7051 16.3459 16.4584 16.3459 17.3877V18.0025C16.3459 18.428 16.1788 18.8377 15.8783 19.1491L12.8572 22.2791H16.3459" stroke="#FF3600" stroke-width="1.5" stroke-miterlimit="10" stroke-linecap="round" stroke-linejoin="round"/>
<path d="M17.1803 9.64355V10.3866" stroke="#FF3600" stroke-width="1.5" stroke-miterlimit="10" stroke-linecap="round" stroke-linejoin="round"/>
<path d="M17.1802 27.5481V28.3391" stroke="#FF3600" stroke-width="1.5" stroke-miterlimit="10" stroke-linecap="round" stroke-linejoin="round"/>
<path d="M7.77319 18.9912H8.52092" stroke="#FF3600" stroke-width="1.5" stroke-miterlimit="10" stroke-linecap="round" stroke-linejoin="round"/>
<path d="M25.7898 18.9912H26.5858" stroke="#FF3600" stroke-width="1.5" stroke-miterlimit="10" stroke-linecap="round" stroke-linejoin="round"/>
<path d="M10.5282 12.3816L11.0569 12.907" stroke="#FF3600" stroke-width="1.5" stroke-miterlimit="10" stroke-linecap="round" stroke-linejoin="round"/>
<path d="M23.2684 25.0417L23.8312 25.601" stroke="#FF3600" stroke-width="1.5" stroke-miterlimit="10" stroke-linecap="round" stroke-linejoin="round"/>
<path d="M10.5282 25.6013L11.0569 25.0759" stroke="#FF3600" stroke-width="1.5" stroke-miterlimit="10" stroke-linecap="round" stroke-linejoin="round"/>
<path d="M7.23475 5.99414C3.29368 8.97691 0.75 13.6894 0.75 18.9923C0.75 28.0103 8.10659 35.3209 17.1814 35.3209C21.518 35.3209 25.4614 33.6507 28.398 30.9233" stroke="#FF3600" stroke-width="1.5" stroke-miterlimit="10" stroke-linecap="round" stroke-linejoin="round"/>
<path d="M30.0608 29.1328C32.2845 26.3474 33.6131 22.8244 33.6131 18.9928C33.6131 17.37 33.3738 15.8031 32.9302 14.3236L32.3184 14.9316C32.087 15.1616 31.7116 15.1616 31.4801 14.9316L30.6426 14.0994C30.4639 13.9218 30.1915 13.8764 29.9645 13.9867C29.7474 14.0922 29.523 14.185 29.2921 14.264C29.0537 14.3456 28.8943 14.5691 28.8943 14.8197V15.9959C28.8943 16.3213 28.6288 16.585 28.3014 16.585H26.4071C26.0797 16.585 25.8143 16.3213 25.8143 15.9959V14.8197C25.8143 14.5691 25.6548 14.3456 25.4164 14.264C25.1855 14.185 24.9611 14.0921 24.744 13.9867C24.5169 13.8763 24.2447 13.9217 24.0659 14.0994L23.2283 14.9316C22.9969 15.1616 22.6215 15.1616 22.39 14.9316L21.0505 13.6005C20.8191 13.3704 20.8191 12.9975 21.0505 12.7674L21.8881 11.9351C22.0668 11.7575 22.1126 11.4869 22.0015 11.2612C21.8953 11.0455 21.8019 10.8225 21.7224 10.5931C21.6403 10.3562 21.4154 10.1977 21.1632 10.1977H19.9795C19.6521 10.1977 19.3867 9.93393 19.3867 9.60866V7.72614C19.3867 7.4008 19.6521 7.1371 19.9795 7.1371H21.1632C21.4153 7.1371 21.6402 6.97864 21.7223 6.74171C21.8018 6.51223 21.8953 6.28922 22.0015 6.07351C22.1126 5.84786 22.0669 5.57727 21.8881 5.39961L21.0505 4.56731C20.8191 4.33728 20.8191 3.96429 21.0505 3.73425L21.5416 3.24629C20.1529 2.86746 18.6913 2.66406 17.1816 2.66406" stroke="#FF3600" stroke-width="1.5" stroke-miterlimit="10" stroke-linecap="round" stroke-linejoin="round"/>
<path d="M7.23485 8.70145V5.99414H4.5105" stroke="#FF3600" stroke-width="1.5" stroke-miterlimit="10" stroke-linecap="round" stroke-linejoin="round"/>
<path d="M35.3207 9.60884V7.72632C35.3207 7.40098 35.0553 7.13728 34.7279 7.13728H33.5443C33.2921 7.13728 33.0672 6.97882 32.9851 6.74189C32.9056 6.51241 32.8121 6.2894 32.706 6.07369C32.5949 5.84804 32.6406 5.57745 32.8193 5.39979L33.6569 4.56749C33.8884 4.33746 33.8884 3.96447 33.6569 3.73443L32.3173 2.40332C32.0858 2.17328 31.7105 2.17328 31.479 2.40332L30.6415 3.23561C30.4628 3.4132 30.1904 3.45863 29.9633 3.3483C29.7463 3.24278 29.5218 3.14999 29.291 3.07096C29.0526 2.98937 28.8931 2.76587 28.8931 2.51531V1.33904C28.8931 1.0137 28.6277 0.75 28.3004 0.75H26.406C26.0786 0.75 25.8132 1.0137 25.8132 1.33904V2.51531C25.8132 2.76587 25.6537 2.98937 25.4154 3.07096C25.1844 3.14999 24.9601 3.24285 24.743 3.3483C24.516 3.4587 24.2437 3.41327 24.0649 3.23561L23.2273 2.40332C22.9958 2.17328 22.6205 2.17328 22.389 2.40332L21.0495 3.73443C20.818 3.96447 20.818 4.33746 21.0495 4.56749L21.887 5.39979C22.0657 5.57738 22.1114 5.84804 22.0004 6.07369C21.8942 6.2894 21.8008 6.51241 21.7213 6.74189C21.6392 6.97882 21.4142 7.13728 21.1621 7.13728H19.9784C19.651 7.13728 19.3857 7.40098 19.3857 7.72632V9.60884C19.3857 9.93418 19.651 10.1979 19.9784 10.1979H21.1621C21.4142 10.1979 21.6392 10.3563 21.7213 10.5933C21.8008 10.8227 21.8942 11.0457 22.0003 11.2614C22.1114 11.4871 22.0657 11.7576 21.8869 11.9353L21.0494 12.7676C20.8179 12.9976 20.8179 13.3706 21.0494 13.6007L22.3889 14.9318C22.6204 15.1618 22.9957 15.1618 23.2272 14.9318L24.0647 14.0995C24.2435 13.922 24.5158 13.8765 24.7429 13.9869C24.96 14.0924 25.1844 14.1852 25.4152 14.2642C25.6536 14.3458 25.8131 14.5693 25.8131 14.8198V15.9961C25.8131 16.3215 26.0785 16.5852 26.4059 16.5852H28.3002C28.6276 16.5852 28.893 16.3215 28.893 15.9961V14.8198C28.893 14.5693 29.0524 14.3458 29.2909 14.2642C29.5218 14.1852 29.7462 14.0923 29.9632 13.9868C30.1903 13.8764 30.4626 13.9218 30.6413 14.0995L31.4789 14.9317C31.7104 15.1617 32.0857 15.1617 32.3172 14.9317L33.6567 13.6006C33.8882 13.3705 33.8882 12.9976 33.6567 12.7675L32.8191 11.9352C32.6404 11.7576 32.5947 11.487 32.7058 11.2613C32.812 11.0456 32.9054 10.8226 32.9849 10.5932C33.067 10.3563 33.2919 10.1978 33.544 10.1978H34.7277C35.0553 10.1979 35.3207 9.93411 35.3207 9.60884Z" stroke="#FF3600" stroke-width="1.5" stroke-miterlimit="10" stroke-linecap="round" stroke-linejoin="round"/>
<path d="M24.8652 9.75791C25.2668 10.6548 26.1476 11.3009 27.1765 11.3655C28.8184 11.4686 30.1721 10.1235 30.0683 8.49184C29.9828 7.14625 28.884 6.05443 27.53 5.96942C26.4467 5.90139 25.4892 6.46407 24.9927 7.32329" stroke="#FF3600" stroke-width="1.5" stroke-miterlimit="10" stroke-linecap="round" stroke-linejoin="round"/>
</svg>
