<svg width="60" height="60" viewBox="0 0 60 60" fill="none" xmlns="http://www.w3.org/2000/svg">
<rect width="60" height="60" rx="30" fill="#FF3600"/>
<path d="M32.7284 23.3315L31.1644 23.119L30.4738 21.7909C30.4243 21.7104 30.355 21.6438 30.2725 21.5977C30.19 21.5516 30.0971 21.5273 30.0026 21.5273C29.9081 21.5273 29.8151 21.5516 29.7326 21.5977C29.6501 21.6438 29.5808 21.7104 29.5314 21.7909L28.8407 23.119L27.2767 23.3315C27.177 23.3453 27.0833 23.3871 27.0064 23.4521C26.9295 23.517 26.8727 23.6025 26.8425 23.6985C26.8124 23.7946 26.8101 23.8972 26.836 23.9944C26.8619 24.0917 26.9149 24.1796 26.9888 24.2479L28.1044 25.2754L27.843 26.7182C27.8259 26.8144 27.8356 26.9134 27.8711 27.0044C27.9066 27.0954 27.9664 27.1748 28.0441 27.234C28.1218 27.2932 28.2143 27.3298 28.3114 27.3399C28.4086 27.3499 28.5066 27.333 28.5948 27.2909L29.9999 26.5897L31.4051 27.2909C31.4933 27.3348 31.592 27.3532 31.6901 27.3442C31.7882 27.3352 31.8819 27.2991 31.9607 27.2399C32.0395 27.1807 32.1002 27.1007 32.1362 27.009C32.1721 26.9173 32.1818 26.8173 32.1642 26.7204L31.9029 25.2775L33.0185 24.2501C33.0924 24.1817 33.1454 24.0938 33.1713 23.9966C33.1972 23.8993 33.1949 23.7967 33.1647 23.7007C33.1346 23.6046 33.0777 23.5192 33.0009 23.4542C32.924 23.3892 32.8302 23.3474 32.7305 23.3336L32.7284 23.3315ZM30.9679 24.6926C30.9021 24.7532 30.8528 24.8295 30.8243 24.9142C30.7959 24.999 30.7894 25.0896 30.8053 25.1776L30.9301 25.8651L30.2363 25.5203C30.1629 25.4838 30.0819 25.4648 29.9999 25.4648C29.9179 25.4648 29.837 25.4838 29.7635 25.5203L29.0697 25.8651L29.1945 25.1776C29.2105 25.0896 29.2039 24.999 29.1755 24.9142C29.1471 24.8295 29.0977 24.7532 29.032 24.6926L28.531 24.2309L29.2514 24.1316C29.3355 24.1201 29.4155 24.0886 29.485 24.0398C29.5544 23.991 29.6111 23.9263 29.6504 23.8511L29.9999 23.1806L30.3495 23.8511C30.3887 23.9263 30.4455 23.991 30.5149 24.0398C30.5843 24.0886 30.6644 24.1201 30.7484 24.1316L31.4688 24.2309L30.9679 24.6926Z" fill="white"/>
<path d="M39.538 26.8861C39.5078 26.79 39.4509 26.7045 39.374 26.6395C39.297 26.5745 39.2032 26.5327 39.1034 26.519L37.5394 26.3065L36.8488 24.9784C36.7993 24.8979 36.73 24.8313 36.6475 24.7852C36.565 24.7391 36.4721 24.7148 36.3776 24.7148C36.2831 24.7148 36.1901 24.7391 36.1076 24.7852C36.0251 24.8313 35.9558 24.8979 35.9064 24.9784L35.2157 26.3065L33.6517 26.519C33.552 26.5328 33.4583 26.5746 33.3814 26.6396C33.3045 26.7045 33.2477 26.79 33.2175 26.886C33.1874 26.9821 33.1851 27.0847 33.211 27.1819C33.2369 27.2792 33.2899 27.3671 33.3638 27.4354L34.4794 28.4629L34.218 29.9057C34.2009 30.0019 34.2106 30.1009 34.2461 30.1919C34.2816 30.2829 34.3414 30.3623 34.4191 30.4215C34.4968 30.4807 34.5893 30.5173 34.6864 30.5274C34.7836 30.5374 34.8816 30.5205 34.9698 30.4784L36.3749 29.7772L37.7801 30.4784C37.8683 30.5223 37.967 30.5407 38.0651 30.5317C38.1632 30.5227 38.2569 30.4866 38.3357 30.4274C38.4145 30.3682 38.4752 30.2882 38.5112 30.1965C38.5471 30.1048 38.5568 30.0048 38.5392 29.9079L38.2779 28.465L39.3935 27.4376C39.4675 27.3689 39.5204 27.2805 39.546 27.1829C39.5715 27.0852 39.5688 26.9823 39.538 26.8861ZM37.3429 27.8801C37.2771 27.9407 37.2278 28.017 37.1993 28.1017C37.1709 28.1865 37.1644 28.2771 37.1803 28.3651L37.3051 29.0526L36.6113 28.7078C36.5379 28.6713 36.4569 28.6523 36.3749 28.6523C36.2929 28.6523 36.212 28.6713 36.1385 28.7078L35.4447 29.0526L35.5695 28.3651C35.5855 28.2771 35.5789 28.1865 35.5505 28.1017C35.5221 28.017 35.4727 27.9407 35.407 27.8801L34.906 27.4184L35.6264 27.3191C35.7105 27.3076 35.7905 27.2761 35.86 27.2273C35.9294 27.1785 35.9861 27.1138 36.0254 27.0386L36.3749 26.3681L36.7245 27.0386C36.7637 27.1138 36.8205 27.1785 36.8899 27.2273C36.9593 27.2761 37.0394 27.3076 37.1234 27.3191L37.8438 27.4184L37.3429 27.8801Z" fill="white"/>
<path d="M21.6647 30.4251C21.7432 30.4846 21.8367 30.521 21.9347 30.5304C22.0328 30.5398 22.1315 30.5217 22.2198 30.4783L23.625 29.777L25.0301 30.4783C25.1184 30.5221 25.2171 30.5406 25.3152 30.5315C25.4133 30.5225 25.507 30.4864 25.5858 30.4272C25.6645 30.368 25.7253 30.2881 25.7612 30.1963C25.7972 30.1046 25.8069 30.0046 25.7893 29.9077L25.5279 28.4648L26.6436 27.4374C26.7175 27.3691 26.7705 27.2812 26.7964 27.1839C26.8222 27.0866 26.82 26.984 26.7898 26.888C26.7596 26.792 26.7028 26.7065 26.6259 26.6415C26.5491 26.5765 26.4553 26.5347 26.3556 26.521L24.7916 26.3085L24.101 24.9804C24.0515 24.8998 23.9822 24.8333 23.8997 24.7872C23.8172 24.741 23.7243 24.7168 23.6298 24.7168C23.5353 24.7168 23.4423 24.741 23.3598 24.7872C23.2773 24.8333 23.208 24.8998 23.1586 24.9804L22.4679 26.3085L20.9039 26.521C20.8042 26.5347 20.7105 26.5765 20.6336 26.6415C20.5567 26.7065 20.4999 26.792 20.4697 26.888C20.4396 26.984 20.4373 27.0866 20.4632 27.1839C20.4891 27.2812 20.5421 27.3691 20.616 27.4374L21.7316 28.4648L21.4702 29.9077C21.452 30.0035 21.4606 30.1024 21.4949 30.1937C21.5292 30.285 21.5879 30.365 21.6647 30.4251ZM22.8765 27.3189C22.9605 27.3074 23.0406 27.276 23.11 27.2272C23.1794 27.1784 23.2362 27.1136 23.2754 27.0384L23.625 26.368L23.9746 27.0384C24.0138 27.1136 24.0705 27.1784 24.1399 27.2272C24.2094 27.276 24.2895 27.3074 24.3735 27.3189L25.0939 27.4183L24.5929 27.8799C24.5272 27.9405 24.4778 28.0168 24.4494 28.1016C24.421 28.1864 24.4144 28.277 24.4304 28.3649L24.5552 29.0524L23.8614 28.7076C23.7879 28.6711 23.707 28.6521 23.625 28.6521C23.543 28.6521 23.462 28.6711 23.3886 28.7076L22.6948 29.0524L22.8196 28.3649C22.8355 28.277 22.829 28.1864 22.8006 28.1016C22.7721 28.0168 22.7228 27.9405 22.6571 27.8799L22.1561 27.4183L22.8765 27.3189Z" fill="white"/>
<path d="M44.3438 15.125H15.6562C15.0927 15.125 14.5522 15.3489 14.1536 15.7474C13.7551 16.1459 13.5312 16.6864 13.5312 17.25V40.625C13.5312 41.1886 13.7551 41.7291 14.1536 42.1276C14.5522 42.5261 15.0927 42.75 15.6562 42.75H35.3125V41.6875H15.6562C15.3745 41.6875 15.1042 41.5756 14.9049 41.3763C14.7057 41.177 14.5938 40.9068 14.5938 40.625V20.4375H45.4062V40.625C45.4062 40.9068 45.2943 41.177 45.0951 41.3763C44.8958 41.5756 44.6255 41.6875 44.3438 41.6875H42.2188V42.75H44.3438C44.9073 42.75 45.4478 42.5261 45.8464 42.1276C46.2449 41.7291 46.4688 41.1886 46.4688 40.625V17.25C46.4688 16.6864 46.2449 16.1459 45.8464 15.7474C45.4478 15.3489 44.9073 15.125 44.3438 15.125ZM14.5938 17.25C14.5938 16.9682 14.7057 16.698 14.9049 16.4987C15.1042 16.2994 15.3745 16.1875 15.6562 16.1875H24.1562V19.375H14.5938V17.25ZM25.2188 19.375V16.1875H44.3438C44.6255 16.1875 44.8958 16.2994 45.0951 16.4987C45.2943 16.698 45.4062 16.9682 45.4062 17.25V19.375H25.2188Z" fill="white"/>
<path d="M17.7812 17.25H18.8438V18.3125H17.7812V17.25Z" fill="white"/>
<path d="M15.6562 17.25H16.7188V18.3125H15.6562V17.25Z" fill="white"/>
<path d="M19.9062 17.25H20.9688V18.3125H19.9062V17.25Z" fill="white"/>
<path d="M22.0312 17.25H23.0938V18.3125H22.0312V17.25Z" fill="white"/>
<path d="M41.272 40.1065L36.4907 39.044C36.4035 39.0245 36.3127 39.0274 36.2268 39.0523C36.1409 39.0773 36.0628 39.1235 35.9995 39.1867C35.9363 39.2499 35.89 39.328 35.865 39.4139C35.8399 39.4997 35.837 39.5905 35.8564 39.6778L36.9189 44.459C36.9436 44.5702 37.0035 44.6706 37.0896 44.7452C37.1756 44.8198 37.2834 44.8647 37.397 44.8734H37.4401C37.5463 44.8735 37.65 44.8418 37.738 44.7823C37.826 44.7228 37.8941 44.6384 37.9336 44.5398L38.9116 42.096L41.3554 41.118C41.4608 41.0759 41.5501 41.0011 41.6099 40.9046C41.6698 40.8081 41.6971 40.695 41.688 40.5818C41.6788 40.4686 41.6336 40.3613 41.5591 40.2757C41.4845 40.1901 41.3844 40.1306 41.2736 40.106L41.272 40.1065ZM38.3033 41.194C38.2365 41.2206 38.1757 41.2606 38.1247 41.3115C38.0738 41.3623 38.0337 41.423 38.0069 41.4899L37.5819 42.5497L37.074 40.2622L39.3616 40.7706L38.3033 41.194Z" fill="white"/>
<path d="M35.844 32.9219C35.844 32.5696 35.7041 32.2318 35.455 31.9827C35.2059 31.7337 34.8681 31.5938 34.5159 31.5938H33.9995C33.8824 31.1375 33.6167 30.7332 33.2443 30.4446C32.8719 30.156 32.4141 29.9996 31.943 30H28.0575C27.5864 29.9996 27.1286 30.156 26.7562 30.4446C26.3839 30.7332 26.1182 31.1375 26.001 31.5938H25.4846C25.1451 31.5925 24.818 31.7217 24.571 31.9546C24.324 32.1876 24.1759 32.5065 24.1573 32.8455C24.1387 33.1846 24.251 33.5178 24.471 33.7764C24.691 34.035 25.002 34.1992 25.3396 34.2351L25.3189 34.3169C24.9853 34.4102 24.6913 34.6097 24.4815 34.8853C24.2717 35.1609 24.1576 35.4974 24.1565 35.8438V37.9688C24.1565 38.1096 24.2125 38.2448 24.3121 38.3444C24.4117 38.444 24.5469 38.5 24.6878 38.5V39.0313C24.6878 39.4539 24.8557 39.8593 25.1546 40.1582C25.4534 40.4571 25.8588 40.625 26.2815 40.625H27.344C27.7667 40.625 28.1721 40.4571 28.471 40.1582C28.7699 39.8593 28.9378 39.4539 28.9378 39.0313V38.5H31.0628V39.0313C31.0628 39.4539 31.2307 39.8593 31.5296 40.1582C31.8284 40.4571 32.2338 40.625 32.6565 40.625H33.719C34.1417 40.625 34.5471 40.4571 34.846 40.1582C35.1448 39.8593 35.3128 39.4539 35.3128 39.0313V38.5C35.4537 38.5 35.5888 38.444 35.6884 38.3444C35.788 38.2448 35.844 38.1096 35.844 37.9688V35.8438C35.8429 35.4974 35.7288 35.1609 35.519 34.8853C35.3092 34.6097 35.0152 34.4102 34.6816 34.3169L34.6609 34.2351C34.9852 34.2002 35.2852 34.0469 35.5035 33.8046C35.7218 33.5623 35.843 33.248 35.844 32.9219ZM34.7815 32.9219C34.7815 32.9923 34.7535 33.0599 34.7037 33.1097C34.6539 33.1595 34.5863 33.1875 34.5159 33.1875H34.3995L34.2667 32.6563H34.5159C34.5863 32.6563 34.6539 32.6842 34.7037 32.7341C34.7535 32.7839 34.7815 32.8514 34.7815 32.9219ZM27.0253 31.8673C27.0828 31.6372 27.2157 31.433 27.4027 31.2871C27.5898 31.1412 27.8203 31.0622 28.0575 31.0625H31.943C32.1803 31.0622 32.4107 31.1412 32.5978 31.2871C32.7849 31.433 32.9177 31.6372 32.9753 31.8673L33.5703 34.25H26.4303L27.0253 31.8673ZM25.4846 33.1875C25.4142 33.1875 25.3466 33.1595 25.2968 33.1097C25.247 33.0599 25.219 32.9923 25.219 32.9219C25.219 32.8514 25.247 32.7839 25.2968 32.7341C25.3466 32.6842 25.4142 32.6563 25.4846 32.6563H25.7338L25.601 33.1875H25.4846ZM27.8753 39.0313C27.8753 39.1721 27.8193 39.3073 27.7197 39.4069C27.62 39.5065 27.4849 39.5625 27.344 39.5625H26.2815C26.1406 39.5625 26.0055 39.5065 25.9059 39.4069C25.8062 39.3073 25.7503 39.1721 25.7503 39.0313V38.5H27.8753V39.0313ZM34.2503 39.0313C34.2503 39.1721 34.1943 39.3073 34.0947 39.4069C33.995 39.5065 33.8599 39.5625 33.719 39.5625H32.6565C32.5156 39.5625 32.3805 39.5065 32.2809 39.4069C32.1812 39.3073 32.1253 39.1721 32.1253 39.0313V38.5H34.2503V39.0313ZM34.7815 37.4375H25.219V35.8438C25.219 35.7029 25.275 35.5677 25.3746 35.4681C25.4742 35.3685 25.6094 35.3125 25.7503 35.3125H34.2503C34.3912 35.3125 34.5263 35.3685 34.6259 35.4681C34.7255 35.5677 34.7815 35.7029 34.7815 35.8438V37.4375Z" fill="white"/>
<path d="M32.6562 35.8438H33.7188V36.9062H32.6562V35.8438Z" fill="white"/>
<path d="M26.2812 35.8438H27.3438V36.9062H26.2812V35.8438Z" fill="white"/>
</svg>
