<svg width="60" height="60" viewBox="0 0 60 60" fill="none" xmlns="http://www.w3.org/2000/svg">
<rect width="60" height="60" rx="30" fill="#FF3600"/>
<g clip-path="url(#clip0_1_224)">
<path d="M46.8288 44.1447L43.2047 37.305C42.9501 36.8285 42.4766 36.5441 41.938 36.5441H34.8985C37.9551 32.6926 40.9259 28.3794 40.9259 24.675C40.9259 18.6509 36.0249 13.75 30.0008 13.75C23.9757 13.75 19.0739 18.6509 19.0739 24.675C19.0739 28.3752 22.046 32.6902 25.104 36.5441H18.0635C17.522 36.5441 17.048 36.8294 16.796 37.3066L13.1739 44.1425C12.93 44.5976 12.943 45.1126 13.2108 45.5578C13.4782 45.9975 13.9263 46.2498 14.4402 46.2498H19.782H23.7442H45.5614C46.0771 46.2498 46.5251 45.9967 46.7903 45.5557C47.0557 45.1142 47.0698 44.6 46.8288 44.1447ZM41.938 37.6065C42.0841 37.6065 42.198 37.6754 42.2667 37.8039L42.9345 39.0644H32.8527C33.2426 38.5899 33.6423 38.1032 34.0452 37.6065H41.938ZM30.0008 14.8124C35.439 14.8124 39.8634 19.2368 39.8634 24.675C39.8634 28.8587 35.302 34.41 31.9715 38.4634C31.2624 39.3264 30.5865 40.1489 30.0008 40.8991C29.4157 40.1497 28.7406 39.3278 28.0322 38.4654C24.7 34.409 20.1363 28.8536 20.1363 24.675C20.1363 19.2367 24.5615 14.8124 30.0008 14.8124ZM18.0635 37.6065H21.9371L21.4494 39.0644H17.067L17.7351 37.8033C17.8031 37.6746 17.9167 37.6065 18.0635 37.6065ZM14.1199 45.0081C14.0481 44.8888 14.0449 44.7664 14.1115 44.6422L15.2384 42.5154H20.2939L19.3997 45.1873H14.4402C14.2999 45.1874 14.1918 45.1263 14.1199 45.0081ZM20.52 45.1874L21.5356 42.1528C21.5898 41.9908 21.5628 41.8126 21.463 41.6739C21.3631 41.5352 21.2027 41.453 21.0318 41.453H15.8013L16.504 40.1268H21.8318C22.0602 40.1268 22.2631 39.9808 22.3356 39.7641L23.0574 37.6065H25.957C26.3812 38.1294 26.8018 38.6415 27.2111 39.1398C28.0256 40.1313 28.7957 41.0687 29.4276 41.8946C29.5404 42.1011 29.7575 42.233 30.0005 42.233H30.0007C30.2438 42.233 30.461 42.1012 30.5739 41.8947C30.9916 41.3487 31.4703 40.7535 31.9817 40.1268H43.4974L44.2002 41.453H32.4854C32.2679 41.453 32.0724 41.5856 31.9919 41.7876C31.9113 41.9897 31.9622 42.2204 32.1201 42.3699L35.0952 45.1874H32.0118L26.0481 39.5393C25.9163 39.4146 25.7301 39.3656 25.554 39.4096C25.378 39.4536 25.2366 39.5844 25.179 39.7564L23.3617 45.1873H20.52V45.1874ZM30.4668 45.1874H24.4821L25.9224 40.8835L30.4668 45.1874ZM45.8797 45.0082C45.8082 45.1271 45.7011 45.1874 45.5613 45.1874H36.6403L33.8188 42.5155H44.7631L45.89 44.6421C45.9552 44.7652 45.9517 44.8884 45.8797 45.0082ZM36.7132 24.675C36.7132 20.9737 33.7021 17.9625 30.0007 17.9625C26.2994 17.9625 23.2882 20.9737 23.2882 24.675C23.2882 28.3774 26.2994 31.3894 30.0007 31.3894C33.7021 31.3894 36.7132 28.3773 36.7132 24.675ZM24.3507 24.675C24.3507 21.5595 26.8853 19.0249 30.0008 19.0249C33.1163 19.0249 35.6509 21.5595 35.6509 24.675C35.6509 27.7915 33.1163 30.327 30.0008 30.327C26.8853 30.327 24.3507 27.7915 24.3507 24.675Z" fill="white"/>
</g>
<defs>
<clipPath id="clip0_1_224">
<rect width="34" height="34" fill="white" transform="translate(13 13)"/>
</clipPath>
</defs>
</svg>
