<svg width="15" height="15" viewBox="0 0 15 15" fill="none" xmlns="http://www.w3.org/2000/svg">
<g clip-path="url(#clip0_1_426)">
<path d="M14.3814 12.3978H14.1728C14.1749 12.3683 14.1749 12.3388 14.1728 12.3094V1.17379C14.1728 0.832121 13.8958 0.555145 13.5541 0.555145H7.50911C7.16744 0.555145 6.89046 0.832121 6.89046 1.17379V5.76943C6.3149 5.90907 5.81124 6.25657 5.47642 6.74512C5.06582 7.33668 4.93891 8.07998 5.12998 8.77427C5.38451 9.74996 5.41632 11.0438 4.88959 11.5812C4.58632 11.85 4.15972 11.9301 3.77957 11.7897C3.37064 11.725 3.02151 11.4595 2.84983 11.0827C2.28775 9.78532 3.69119 7.33195 3.69473 7.32134C3.77957 7.19408 5.73448 4.15742 3.73715 2.37219C3.65584 2.28735 1.7292 0.251125 0.240923 0.449092C0.0896204 0.468623 -0.0172283 0.607111 0.00230317 0.758414C0.0218347 0.909716 0.160323 1.01657 0.311625 0.997034C0.66929 0.975558 1.02581 1.05519 1.34034 1.22682L0.94441 1.70406C0.729829 1.96994 0.771455 2.35942 1.03734 2.574C1.04167 2.57749 1.04604 2.58094 1.05046 2.5843L2.37966 3.64483C2.48894 3.73241 2.62496 3.77983 2.76499 3.77916H2.81802C2.98099 3.76078 3.1299 3.67806 3.23163 3.54938L3.61695 3.06507C4.81182 4.59224 3.26344 7.0244 3.22456 7.06328C3.16092 7.17287 1.67618 9.77118 2.34078 11.3054C2.58647 11.8382 3.08046 12.2143 3.65937 12.3094C3.83768 12.3526 4.02035 12.3751 4.20378 12.3765C4.60016 12.3885 4.98389 12.2363 5.26431 11.9559C5.97134 11.217 5.91477 9.71108 5.63904 8.64348C5.34575 7.66072 5.90196 6.62572 6.88339 6.32798V12.3094C6.88127 12.3388 6.88127 12.3683 6.88339 12.3978H6.70664C6.36506 12.3899 6.08181 12.6605 6.07403 13.0021C6.0739 13.0069 6.07385 13.0116 6.07385 13.0164V13.9461C6.07377 14.2878 6.35065 14.5649 6.69232 14.565C6.69709 14.565 6.70187 14.5649 6.70664 14.5648H14.3814C14.723 14.5648 15 14.2878 15 13.9461V13.0164C15 12.6748 14.723 12.3978 14.3814 12.3978ZM3.21042 2.73631L2.81802 3.22062C2.80304 3.23882 2.78139 3.25027 2.75792 3.25243C2.73521 3.25539 2.71223 3.24899 2.69429 3.23476L1.36509 2.17422C1.33142 2.13985 1.33142 2.08487 1.36509 2.0505L1.75749 1.56265C1.77247 1.54445 1.79412 1.533 1.81758 1.53084C1.8403 1.52787 1.86327 1.53428 1.88121 1.54851L3.21042 2.60904C3.22893 2.62376 3.24046 2.64554 3.24223 2.66914C3.24201 2.69512 3.23039 2.71969 3.21042 2.73631ZM7.41366 1.17379C7.41366 1.12496 7.45321 1.08541 7.50204 1.08541H13.5612C13.61 1.08541 13.6496 1.12496 13.6496 1.17379V12.3094C13.6496 12.3582 13.61 12.3978 13.5612 12.3978H7.50911C7.46046 12.4016 7.41786 12.3654 7.41393 12.3167C7.41375 12.3143 7.41362 12.3118 7.41366 12.3094V1.17379ZM14.4839 13.9461C14.4839 13.995 14.4443 14.0345 14.3955 14.0345H6.70664C6.65781 14.0345 6.61826 13.995 6.61826 13.9461V13.0164C6.61826 12.9676 6.65781 12.928 6.70664 12.928H14.3814C14.4295 12.9202 14.475 12.9529 14.4827 13.0011C14.4836 13.0062 14.4839 13.0113 14.4839 13.0164V13.9461Z" fill="#FF3600"/>
<path d="M12.3628 1.92676H8.70043C8.35876 1.92676 8.08179 2.20373 8.08179 2.5454V6.21131C8.08179 6.55298 8.35876 6.82995 8.70043 6.82995H12.3628C12.7045 6.82995 12.9814 6.55298 12.9814 6.21131V2.5454C12.9814 2.20378 12.7045 1.92676 12.3628 1.92676ZM12.4512 6.21484C12.4493 6.26226 12.4103 6.29973 12.3628 6.29969H8.70043C8.6516 6.29969 8.61205 6.26014 8.61205 6.21131V2.5454C8.61205 2.49657 8.6516 2.45702 8.70043 2.45702H12.3628C12.4116 2.45702 12.4512 2.49657 12.4512 2.5454V6.21484Z" fill="#FF3600"/>
<path d="M11.9497 7.83008H9.12158C8.97514 7.83008 8.85645 7.94877 8.85645 8.09521C8.85645 8.24165 8.97514 8.36034 9.12158 8.36034H11.9497C12.0961 8.36034 12.2148 8.24165 12.2148 8.09521C12.2148 7.94877 12.0961 7.83008 11.9497 7.83008Z" fill="#FF3600"/>
</g>
<defs>
<clipPath id="clip0_1_426">
<rect width="15" height="15" fill="white"/>
</clipPath>
</defs>
</svg>
