<svg width="24" height="26" viewBox="0 0 24 26" fill="none" xmlns="http://www.w3.org/2000/svg">
<path d="M12.7411 1.74712C13.3003 1.3107 13.9964 1.08305 14.7067 1.08305H23.1111V0H13.9623C13.4202 0 12.8845 0.131749 12.4126 0.394761C9.2112 2.17143 8.08752 5.00257 5.95571 8.37378C5.9601 8.32486 5.97083 8.27788 5.97083 8.22799V8.2275C5.97083 7.30139 5.21521 6.5511 4.28361 6.5511H1.68722C0.755616 6.55159 0 7.30187 0 8.22799V8.22847C0 9.1541 0.755616 9.90488 1.68722 9.90488H4.28312C4.57221 9.90488 4.84081 9.82592 5.07871 9.69853C4.47178 10.5685 3.78149 11.4665 2.95324 12.3878C2.15277 13.2775 1.72134 14.4337 1.72134 15.6267V20.5881C1.72134 22.298 2.51547 23.9308 3.90824 24.9354C3.94236 24.9601 3.97698 24.9848 4.0111 25.0095C4.93149 25.6561 6.0342 26 7.16177 26H9.91563L13.7147 21.8213H21.9167V23.2652H14.5961L12.3594 25.9995H23.1111V9.49122H7.37968C8.52481 6.4116 10.1959 3.73885 12.7411 1.74712ZM10.4982 18.7659C9.86736 20.0083 7.56688 20.1183 5.35951 19.0105C3.15409 17.9038 1.87685 15.9987 2.50962 14.7563C3.1419 13.5134 5.44238 13.4035 7.6478 14.5103C9.85323 15.618 11.1305 17.5216 10.4982 18.7659ZM7.85353 11.2432L11.4298 13.5677H21.9167V15.2436H11.4298L7.03112 12.5229C6.79274 12.3756 6.67135 12.1267 6.67135 11.8777C6.67135 11.6641 6.76154 11.449 6.94533 11.2955C7.20419 11.0824 7.57127 11.0606 7.85353 11.2432Z" fill="#FF3600"/>
</svg>
