<svg width="182" height="26" viewBox="0 0 182 26" fill="none" xmlns="http://www.w3.org/2000/svg">
<path d="M40.2133 23.1778C38.8267 23.1778 37.517 22.9081 36.2844 22.3689C35.0518 21.8296 33.9733 21.0881 33.0489 20.1444C32.1244 19.1815 31.3926 18.0741 30.8533 16.8222C30.3333 15.5511 30.0733 14.1933 30.0733 12.7489C30.0733 11.3044 30.3333 9.9563 30.8533 8.70444C31.3926 7.45259 32.1244 6.35481 33.0489 5.41111C33.9926 4.44815 35.0904 3.70667 36.3422 3.18667C37.6133 2.64741 38.9807 2.37778 40.4444 2.37778C42.043 2.37778 43.5259 2.68593 44.8933 3.30222C46.2607 3.91852 47.4067 4.79481 48.3311 5.93111L46.0778 8.18444C45.4807 7.33704 44.6815 6.69185 43.68 6.24889C42.6785 5.78667 41.6 5.55556 40.4444 5.55556C39.0578 5.55556 37.8348 5.8637 36.7756 6.48C35.7356 7.07704 34.9267 7.91481 34.3489 8.99333C33.7711 10.0719 33.4822 11.3237 33.4822 12.7489C33.4822 14.1741 33.7711 15.4356 34.3489 16.5333C34.9459 17.6119 35.7452 18.4593 36.7467 19.0756C37.7481 19.6919 38.8844 20 40.1556 20C41.5037 20 42.6593 19.7593 43.6222 19.2778C44.6044 18.777 45.3556 18.0452 45.8756 17.0822C46.3956 16.1 46.6556 14.8963 46.6556 13.4711L48.7356 14.9733H40.0978V11.94H50.0933V12.4022C50.0933 14.8096 49.66 16.8126 48.7933 18.4111C47.9459 20.0096 46.7807 21.2037 45.2978 21.9933C43.8148 22.783 42.12 23.1778 40.2133 23.1778ZM62.9279 23.1778C61.4835 23.1778 60.1353 22.9081 58.8835 22.3689C57.6316 21.8296 56.5338 21.0881 55.5901 20.1444C54.6464 19.1815 53.9049 18.0741 53.3657 16.8222C52.8457 15.5511 52.5857 14.1933 52.5857 12.7489C52.5857 11.3044 52.8457 9.9563 53.3657 8.70444C53.9049 7.45259 54.6368 6.35481 55.5612 5.41111C56.5049 4.44815 57.5931 3.70667 58.8257 3.18667C60.0775 2.64741 61.4257 2.37778 62.8701 2.37778C64.3146 2.37778 65.6531 2.64741 66.8857 3.18667C68.1375 3.70667 69.2353 4.44815 70.179 5.41111C71.1227 6.35481 71.8546 7.46222 72.3746 8.73333C72.9138 9.98519 73.1835 11.3333 73.1835 12.7778C73.1835 14.2222 72.9138 15.58 72.3746 16.8511C71.8546 18.103 71.1227 19.2007 70.179 20.1444C69.2546 21.0881 68.1664 21.8296 66.9146 22.3689C65.682 22.9081 64.3531 23.1778 62.9279 23.1778ZM62.8701 20C64.2375 20 65.4316 19.6919 66.4523 19.0756C67.4923 18.4593 68.3012 17.6119 68.879 16.5333C69.476 15.4356 69.7746 14.1741 69.7746 12.7489C69.7746 11.6896 69.6012 10.7267 69.2546 9.86C68.9272 8.97407 68.4553 8.21333 67.839 7.57778C67.2227 6.92296 66.4909 6.42222 65.6435 6.07556C64.8153 5.72889 63.8909 5.55556 62.8701 5.55556C61.522 5.55556 60.3279 5.8637 59.2879 6.48C58.2672 7.07704 57.4583 7.91481 56.8612 8.99333C56.2835 10.0719 55.9946 11.3237 55.9946 12.7489C55.9946 13.8081 56.1583 14.7904 56.4857 15.6956C56.8323 16.5815 57.3042 17.3422 57.9012 17.9778C58.5175 18.6133 59.2494 19.1141 60.0968 19.48C60.9442 19.8267 61.8686 20 62.8701 20Z" fill="#050B20"/>
<path d="M78.8441 14.3089V11.5644H83.9574C84.9782 11.5644 85.7678 11.3044 86.3263 10.7844C86.9041 10.2452 87.193 9.5037 87.193 8.56C87.193 7.71259 86.9137 7 86.3552 6.42222C85.7967 5.84444 85.0071 5.55556 83.9863 5.55556H78.8441V2.66667H84.1308C85.4019 2.66667 86.5189 2.92667 87.4819 3.44667C88.4448 3.94741 89.1863 4.64074 89.7063 5.52667C90.2456 6.39333 90.5152 7.38518 90.5152 8.50222C90.5152 9.67704 90.2456 10.6978 89.7063 11.5644C89.1863 12.4311 88.4448 13.1052 87.4819 13.5867C86.5189 14.0681 85.4019 14.3089 84.1308 14.3089H78.8441ZM76.5619 22.8889V2.66667H79.8841V22.8889H76.5619ZM87.6552 22.8889L80.5774 14.1067L83.6685 12.98L91.8441 22.8889H87.6552ZM94.3071 22.8889V2.66667H97.6293V22.8889H94.3071ZM96.5893 22.8889V19.8556H107.914V22.8889H96.5893ZM96.5893 14.02V11.1022H106.932V14.02H96.5893ZM96.5893 5.7V2.66667H107.769V5.7H96.5893ZM111.347 22.8889V2.66667H113.658L114.669 6.48V22.8889H111.347ZM125.358 22.8889L113.254 7.08667L113.658 2.66667L125.763 18.4689L125.358 22.8889ZM125.358 22.8889L124.347 19.3356V2.66667H127.669V22.8889H125.358ZM137.139 22.8889V3.24444H140.461V22.8889H137.139ZM130.552 5.7V2.66667H147.048V5.7H130.552ZM145.646 22.8889L153.966 2.66667H156.277L164.539 22.8889H160.957L154.486 6.50889H155.699L149.17 22.8889H145.646ZM149.748 18.9889V16.1H160.466V18.9889H149.748ZM167.206 22.8889V2.66667H170.529V22.8889H167.206ZM169.489 22.8889V19.8556H180.062V22.8889H169.489Z" fill="#FF3600"/>
<path d="M12.7411 1.74712C13.3003 1.3107 13.9964 1.08305 14.7067 1.08305H23.1111V0H13.9623C13.4202 0 12.8845 0.131749 12.4126 0.394761C9.2112 2.17143 8.08752 5.00257 5.95571 8.37378C5.9601 8.32486 5.97083 8.27788 5.97083 8.22799V8.2275C5.97083 7.30139 5.21521 6.5511 4.28361 6.5511H1.68722C0.755616 6.55159 0 7.30187 0 8.22799V8.22847C0 9.1541 0.755616 9.90488 1.68722 9.90488H4.28312C4.57221 9.90488 4.84081 9.82592 5.07871 9.69853C4.47178 10.5685 3.78149 11.4665 2.95324 12.3878C2.15277 13.2775 1.72134 14.4337 1.72134 15.6267V20.5881C1.72134 22.298 2.51547 23.9308 3.90824 24.9354C3.94236 24.9601 3.97698 24.9848 4.0111 25.0095C4.93149 25.6561 6.0342 26 7.16177 26H9.91563L13.7147 21.8213H21.9167V23.2652H14.5961L12.3594 25.9995H23.1111V9.49122H7.37968C8.52481 6.4116 10.1959 3.73885 12.7411 1.74712ZM10.4982 18.7659C9.86736 20.0083 7.56688 20.1183 5.35951 19.0105C3.15409 17.9038 1.87685 15.9987 2.50962 14.7563C3.1419 13.5134 5.44238 13.4035 7.6478 14.5103C9.85323 15.618 11.1305 17.5216 10.4982 18.7659ZM7.85353 11.2432L11.4298 13.5677H21.9167V15.2436H11.4298L7.03112 12.5229C6.79274 12.3756 6.67135 12.1267 6.67135 11.8777C6.67135 11.6641 6.76154 11.449 6.94533 11.2955C7.20419 11.0824 7.57127 11.0606 7.85353 11.2432Z" fill="#FF3600"/>
</svg>
