<svg width="142" height="142" viewBox="0 0 142 142" fill="none" xmlns="http://www.w3.org/2000/svg">
<g clip-path="url(#clip0_1_1449)">
<path d="M48.7233 12.5128L43.92 5.06402L44.9231 4.74717L48.7234 10.8492L48.803 10.824L48.4421 3.63571L49.5567 3.28366L53.3888 9.3756L53.4685 9.35046L53.0757 2.1722L54.0789 1.85536L54.4238 10.7123L53.4047 11.0342L49.5541 5.10568L49.4905 5.1258L49.7424 12.1909L48.7233 12.5128Z" fill="white"/>
<path d="M59.4096 9.4972L58.3297 9.64151L60.3168 0.717872L61.3801 0.575786L65.6397 8.66467L64.5599 8.80898L61.0614 1.98811L60.995 1.99699L59.4096 9.4972ZM59.3645 6.12116L63.7173 5.5395L63.8393 6.45326L59.4865 7.03492L59.3645 6.12116Z" fill="white"/>
<path d="M66.7931 0.904584L66.7782 -0.0171696L73.2137 -0.121656L73.2287 0.800097L70.5304 0.843906L70.6547 8.50284L69.6157 8.51971L69.4914 0.860776L66.7931 0.904584Z" fill="white"/>
<path d="M82.2972 3.43981L81.2646 3.32251C81.2373 3.01857 81.16 2.74551 81.0329 2.50333C80.9085 2.26147 80.7468 2.05191 80.5476 1.87465C80.3515 1.69493 80.1274 1.55139 79.8754 1.44403C79.6233 1.33667 79.3557 1.2669 79.0725 1.23474C78.5563 1.17609 78.0737 1.25342 77.625 1.46672C77.179 1.68034 76.8036 2.02709 76.4989 2.50699C76.197 2.98719 76.0041 3.59647 75.9202 4.33481C75.8364 5.07315 75.8877 5.71018 76.0743 6.24588C76.2637 6.7819 76.5517 7.20402 76.9384 7.51224C77.3279 7.82077 77.7808 8.00436 78.2971 8.06301C78.5802 8.09518 78.8567 8.08722 79.1264 8.03914C79.3962 7.99106 79.6466 7.90283 79.8776 7.77444C80.1118 7.6436 80.3166 7.47427 80.492 7.26647C80.6705 7.0562 80.807 6.80742 80.9015 6.52014L81.934 6.63744C81.8068 7.0644 81.621 7.4383 81.3765 7.75916C81.132 8.08001 80.8434 8.34384 80.5106 8.55064C80.1782 8.75467 79.8147 8.89754 79.4203 8.97924C79.0286 9.06127 78.6177 9.07784 78.1874 9.02896C77.4602 8.94635 76.8336 8.69523 76.3077 8.27561C75.7818 7.85599 75.3937 7.3002 75.1433 6.60824C74.893 5.91627 74.8188 5.12063 74.921 4.22129C75.0231 3.32196 75.2737 2.5632 75.6729 1.94503C76.072 1.32685 76.5749 0.872281 77.1815 0.581315C77.7881 0.29035 78.455 0.186175 79.1822 0.268791C79.6125 0.317667 80.0092 0.426001 80.3726 0.593793C80.7386 0.7619 81.0606 0.984041 81.3385 1.26021C81.6168 1.53361 81.839 1.85407 82.0053 2.2216C82.172 2.58634 82.2692 2.99241 82.2972 3.43981Z" fill="white"/>
<path d="M83.7742 9.68172L86.0412 1.40475L87.0435 1.67936L86.0339 5.3652L90.4471 6.57439L91.4567 2.88855L92.4589 3.16317L90.1919 11.4401L89.1896 11.1655L90.2036 7.46352L85.7904 6.25433L84.7764 9.95633L83.7742 9.68172Z" fill="white"/>
<path d="M106.664 9.55213L102.631 17.1044L101.746 16.6317L100.798 8.50373L100.724 8.46434L97.5576 14.3941L96.6432 13.9056L100.676 6.35328L101.561 6.82601L102.517 14.9766L102.59 15.016L105.765 9.07152L106.664 9.55213Z" fill="white"/>
<path d="M114.03 19.8243C113.48 20.5426 112.874 21.0639 112.214 21.3882C111.553 21.7126 110.888 21.8432 110.218 21.7802C109.549 21.7171 108.923 21.4629 108.343 21.0175C107.762 20.5721 107.354 20.0341 107.119 19.4035C106.885 18.7729 106.838 18.0966 106.98 17.3745C107.122 16.6523 107.468 15.9321 108.019 15.2138C108.569 14.4955 109.175 13.9742 109.835 13.6499C110.496 13.3256 111.161 13.1949 111.831 13.2579C112.501 13.321 113.126 13.5752 113.707 14.0206C114.287 14.466 114.695 15.004 114.93 15.6346C115.164 16.2652 115.211 16.9415 115.069 17.6636C114.927 18.3858 114.581 19.106 114.03 19.8243ZM113.232 19.2123C113.685 18.6226 113.967 18.0492 114.081 17.4922C114.197 16.9368 114.168 16.4266 113.993 15.9615C113.82 15.4981 113.527 15.1083 113.115 14.7921C112.703 14.4759 112.249 14.2937 111.755 14.2453C111.263 14.1987 110.762 14.3026 110.254 14.5571C109.748 14.8132 109.269 15.2361 108.817 15.8258C108.365 16.4155 108.081 16.9881 107.965 17.5434C107.851 18.1004 107.88 18.6106 108.053 19.074C108.228 19.5391 108.522 19.9298 108.934 20.246C109.346 20.5622 109.799 20.7436 110.291 20.7902C110.785 20.8385 111.286 20.7346 111.792 20.4785C112.3 20.2241 112.78 19.802 113.232 19.2123Z" fill="white"/>
<path d="M115.238 26.7173L120.125 19.2926L120.822 20.0847L116.764 26.0434L116.819 26.1063L123.266 22.8631L124.041 23.7431L120.005 29.727L120.06 29.7899L126.485 26.5215L127.182 27.3136L119.198 31.2181L118.49 30.4135L122.368 24.4789L122.324 24.4286L115.946 27.5219L115.238 26.7173Z" fill="white"/>
<path d="M128.414 37.9L130.052 37.0501L128.424 36.1806L128.838 35.4837L130.391 36.4921L130.326 34.6414L131.137 34.6447L131.044 36.4886L132.615 35.5219L133.011 36.2221L131.374 37.0721L133.002 37.9415L132.588 38.6384L131.035 37.63L131.1 39.4807L130.289 39.4774L130.382 37.6336L128.811 38.6002L128.414 37.9Z" fill="white"/>
<path d="M129.321 48.138L136.766 43.2668L137.091 44.2717L130.991 48.127L131.017 48.2067L138.229 47.7967L138.59 48.9132L132.5 52.8004L132.526 52.8802L139.728 52.4382L140.053 53.4431L131.165 53.8482L130.836 52.8273L136.761 48.9227L136.74 48.8589L129.651 49.1588L129.321 48.138Z" fill="white"/>
<path d="M132.421 58.8213L132.266 57.7429L141.209 59.6391L141.361 60.7009L133.316 65.0427L133.161 63.9643L139.946 60.3967L139.936 60.3303L132.421 58.8213ZM135.796 58.7418L136.422 63.0885L135.509 63.2199L134.884 58.8731L135.796 58.7418Z" fill="white"/>
<path d="M141.085 66.0752L142.007 66.0526L142.164 72.4871L141.242 72.5096L141.176 69.8118L133.519 69.999L133.493 68.9601L141.151 68.7729L141.085 66.0752Z" fill="white"/>
<path d="M138.711 81.5897L138.817 80.5559C139.12 80.5252 139.392 80.445 139.633 80.3152C139.874 80.1882 140.081 80.0242 140.256 79.8231C140.434 79.625 140.575 79.3994 140.68 79.1461C140.784 78.8929 140.851 78.6245 140.88 78.3411C140.933 77.8242 140.85 77.3425 140.632 76.8961C140.414 76.4525 140.063 76.0809 139.579 75.7815C139.096 75.4848 138.485 75.2986 137.745 75.2229C137.006 75.1471 136.37 75.2055 135.836 75.3979C135.302 75.5931 134.883 75.8858 134.579 76.2758C134.275 76.6687 134.097 77.1236 134.044 77.6405C134.015 77.9239 134.026 78.2003 134.077 78.4695C134.128 78.7387 134.219 78.9881 134.35 79.2178C134.483 79.4505 134.655 79.6534 134.864 79.8265C135.077 80.0027 135.327 80.1365 135.615 80.2278L135.509 81.2616C135.081 81.1391 134.705 80.9573 134.381 80.7164C134.058 80.4754 133.791 80.1897 133.58 79.8592C133.373 79.5291 133.226 79.1672 133.14 78.7736C133.054 78.3829 133.032 77.9721 133.077 77.5414C133.151 76.8133 133.395 76.184 133.809 75.6535C134.223 75.1231 134.774 74.7289 135.464 74.4709C136.153 74.213 136.947 74.1302 137.848 74.2224C138.748 74.3147 139.51 74.557 140.132 74.9494C140.755 75.3417 141.215 75.8396 141.513 76.4429C141.81 77.0463 141.922 77.7121 141.847 78.4402C141.803 78.8709 141.699 79.2688 141.535 79.634C141.371 80.0019 141.153 80.3263 140.88 80.6072C140.609 80.8884 140.291 81.1142 139.926 81.2845C139.563 81.4551 139.158 81.5569 138.711 81.5897Z" fill="white"/>
<path d="M132.503 83.1577L140.828 85.3036L140.568 86.3116L136.861 85.356L135.717 89.7947L139.424 90.7502L139.164 91.7583L130.84 89.6124L131.1 88.6044L134.823 89.5642L135.967 85.1255L132.244 84.1658L132.503 83.1577Z" fill="white"/>
<path d="M132.968 106.113L125.331 102.165L125.793 101.27L133.941 100.207L133.979 100.133L127.983 97.0328L128.461 96.1079L136.098 100.056L135.636 100.951L127.466 102.021L127.427 102.095L133.439 105.203L132.968 106.113Z" fill="white"/>
<path d="M122.651 113.528C121.927 112.985 121.4 112.385 121.069 111.728C120.737 111.071 120.6 110.407 120.656 109.736C120.712 109.066 120.959 108.438 121.399 107.852C121.838 107.267 122.371 106.853 122.999 106.612C123.627 106.371 124.303 106.317 125.026 106.452C125.75 106.586 126.474 106.925 127.198 107.468C127.922 108.011 128.449 108.611 128.78 109.269C129.111 109.926 129.249 110.59 129.193 111.26C129.137 111.931 128.89 112.559 128.45 113.144C128.011 113.73 127.478 114.143 126.85 114.384C126.222 114.625 125.546 114.679 124.822 114.545C124.099 114.41 123.375 114.072 122.651 113.528ZM123.255 112.724C123.849 113.17 124.425 113.447 124.983 113.555C125.54 113.665 126.05 113.63 126.513 113.45C126.974 113.273 127.361 112.976 127.673 112.561C127.985 112.145 128.162 111.69 128.205 111.194C128.247 110.702 128.137 110.202 127.878 109.697C127.616 109.193 127.188 108.718 126.594 108.272C126 107.826 125.424 107.548 124.868 107.438C124.31 107.33 123.8 107.365 123.339 107.543C122.875 107.722 122.488 108.02 122.176 108.436C121.864 108.851 121.688 109.306 121.646 109.799C121.603 110.294 121.712 110.793 121.974 111.296C122.233 111.802 122.66 112.278 123.255 112.724Z" fill="white"/>
<path d="M115.802 114.784L123.288 119.563L122.506 120.27L116.497 116.299L116.435 116.356L119.765 122.752L118.897 123.539L112.863 119.59L112.801 119.646L116.156 126.021L115.375 126.728L111.362 118.805L112.156 118.086L118.139 121.878L118.188 121.833L115.008 115.503L115.802 114.784Z" fill="white"/>
<path d="M104.741 128.178L105.604 129.816L106.466 128.176L107.168 128.587L106.166 130.152L108.023 130.074L108.025 130.888L106.174 130.807L107.154 132.378L106.454 132.78L105.591 131.142L104.729 132.782L104.027 132.371L105.029 130.806L103.173 130.884L103.171 130.07L105.021 130.151L104.041 128.58L104.741 128.178Z" fill="white"/>
<path d="M94.5026 129.139L99.4505 136.533L98.4491 136.868L94.5309 130.808L94.4514 130.835L94.9363 138.043L93.8237 138.416L89.8737 132.367L89.7942 132.394L90.3109 139.591L89.3095 139.926L88.8122 131.043L89.8295 130.703L93.7952 136.587L93.8587 136.566L93.4853 129.479L94.5026 129.139Z" fill="white"/>
<path d="M83.8692 132.325L84.9458 132.158L83.1445 141.121L82.0844 141.285L77.6577 133.286L78.7343 133.12L82.3736 139.867L82.4399 139.856L83.8692 132.325ZM83.9844 135.699L79.6446 136.371L79.5036 135.46L83.8434 134.788L83.9844 135.699Z" fill="white"/>
<path d="M76.6948 141.074L76.7269 141.996L70.2945 142.22L70.2623 141.299L72.9593 141.205L72.692 133.55L73.7306 133.513L73.9978 141.169L76.6948 141.074Z" fill="white"/>
<path d="M61.1321 138.954L62.1713 139.047C62.2059 139.352 62.2898 139.624 62.4231 139.864C62.5536 140.104 62.7209 140.311 62.9249 140.484C63.126 140.66 63.3543 140.798 63.6098 140.9C63.8654 141.002 64.1356 141.066 64.4206 141.092C64.9402 141.138 65.4227 141.049 65.8682 140.825C66.3108 140.6 66.6795 140.243 66.9741 139.754C67.2659 139.265 67.4453 138.649 67.5121 137.906C67.579 137.163 67.5125 136.525 67.3127 135.991C67.1101 135.458 66.8111 135.041 66.4156 134.74C66.0174 134.44 65.5585 134.266 65.0389 134.219C64.754 134.194 64.4767 134.208 64.2071 134.263C63.9375 134.317 63.6882 134.412 63.4592 134.546C63.2273 134.683 63.0257 134.858 62.8545 135.07C62.6802 135.286 62.549 135.538 62.4609 135.829L61.4217 135.736C61.5394 135.304 61.7172 134.924 61.9551 134.597C62.193 134.269 62.4765 133.997 62.8057 133.782C63.1346 133.569 63.496 133.417 63.8901 133.326C64.2813 133.234 64.6934 133.208 65.1264 133.247C65.8583 133.313 66.4931 133.55 67.0309 133.959C67.5686 134.368 67.9712 134.917 68.2387 135.606C68.5062 136.294 68.5993 137.091 68.5178 137.996C68.4364 138.902 68.2026 139.669 67.8164 140.299C67.4302 140.929 66.9361 141.397 66.334 141.703C65.732 142.009 65.065 142.13 64.3331 142.064C63.9001 142.025 63.4993 141.925 63.1307 141.765C62.7593 141.605 62.4308 141.39 62.1454 141.119C61.8598 140.851 61.6291 140.535 61.4536 140.17C61.2778 139.807 61.1706 139.402 61.1321 138.954Z" fill="white"/>
<path d="M59.52 132.646L57.4268 140.969L56.419 140.715L57.3511 137.009L52.9135 135.892L51.9814 139.599L50.9736 139.345L53.0668 131.022L54.0746 131.276L53.1384 134.998L57.5759 136.115L58.5122 132.392L59.52 132.646Z" fill="white"/>
<path d="M36.6431 133.377L40.4878 125.705L41.3868 126.156L42.5487 134.275L42.6236 134.313L45.6423 128.289L46.5713 128.755L42.7266 136.427L41.8276 135.976L40.6582 127.834L40.5833 127.797L37.5571 133.836L36.6431 133.377Z" fill="white"/>
<path d="M29.0357 123.211C29.5696 122.478 30.1635 121.94 30.8171 121.599C31.4708 121.258 32.1339 121.111 32.8064 121.157C33.4789 121.204 34.1116 121.443 34.7044 121.875C35.2972 122.307 35.7189 122.836 35.9696 123.462C36.2202 124.088 36.2834 124.764 36.1592 125.491C36.035 126.218 35.7059 126.948 35.172 127.681C34.638 128.414 34.0442 128.952 33.3906 129.293C32.7369 129.634 32.0738 129.781 31.4013 129.735C30.7288 129.688 30.0961 129.449 29.5033 129.017C28.9105 128.585 28.4887 128.056 28.2381 127.43C27.9875 126.804 27.9243 126.128 28.0485 125.401C28.1727 124.674 28.5017 123.944 29.0357 123.211ZM29.8502 123.804C29.4119 124.406 29.1426 124.988 29.0424 125.548C28.9399 126.108 28.982 126.618 29.1688 127.08C29.3533 127.54 29.6559 127.923 30.0768 128.229C30.4976 128.536 30.9563 128.707 31.4529 128.744C31.9472 128.778 32.4459 128.662 32.9488 128.394C33.4495 128.125 33.9191 127.69 34.3574 127.088C34.7958 126.486 35.0662 125.905 35.1687 125.346C35.2689 124.785 35.2268 124.275 35.0423 123.815C34.8555 123.353 34.5517 122.969 34.1309 122.663C33.71 122.356 33.2524 122.185 32.7581 122.151C32.2616 122.115 31.7629 122.231 31.2622 122.5C30.7593 122.768 30.2886 123.202 29.8502 123.804Z" fill="white"/>
<path d="M27.7483 116.326L23.0797 123.875L22.3617 123.104L26.2441 117.041L26.1871 116.98L19.843 120.4L19.0453 119.543L22.9049 113.456L22.8479 113.395L16.5266 116.839L15.8086 116.068L23.6683 111.945L24.3977 112.728L20.6938 118.761L20.7393 118.81L27.019 115.542L27.7483 116.326Z" fill="white"/>
<path d="M14.309 105.375L12.6893 106.258L14.3346 107.094L13.9343 107.799L12.3616 106.822L12.4641 108.671L11.6536 108.684L11.7091 106.839L10.1578 107.837L9.7475 107.145L11.3672 106.263L9.72193 105.426L10.1222 104.721L11.6949 105.698L11.5924 103.849L12.4029 103.836L12.3474 105.681L13.8988 104.683L14.309 105.375Z" fill="white"/>
<path d="M13.0119 94.6328L5.69502 99.6946L5.34467 98.6985L11.343 94.6869L11.3152 94.6078L4.11568 95.204L3.7264 94.0972L9.71357 90.054L9.68577 89.9749L2.49741 90.6028L2.14706 89.6066L11.021 88.9721L11.3769 89.9841L5.5543 94.0405L5.57654 94.1037L12.656 93.6208L13.0119 94.6328Z" fill="white"/>
<path d="M9.92307 84.8283L10.1059 85.9023L1.11709 84.2362L0.93712 83.1786L8.86854 78.6319L9.05133 79.7059L2.3599 83.4465L2.37114 83.5126L9.92307 84.8283ZM6.55086 84.9943L5.81409 80.6651L6.72289 80.5104L7.45966 84.8396L6.55086 84.9943Z" fill="white"/>
<path d="M1.06689 77.7426L0.146129 77.7878L-0.169351 71.3592L0.751415 71.314L0.883687 74.0093L8.53442 73.6337L8.58535 74.6717L0.934623 75.0473L1.06689 77.7426Z" fill="white"/>
<path d="M3.01483 62.1508L2.93171 63.19C2.62788 63.2276 2.35669 63.3141 2.11812 63.4496C1.87977 63.5824 1.67506 63.7516 1.50399 63.9572C1.33035 64.1597 1.19391 64.3892 1.09469 64.6455C0.995465 64.9019 0.934458 65.1725 0.911666 65.4575C0.870106 65.9771 0.963752 66.4583 1.19261 66.9011C1.42168 67.3412 1.78189 67.706 2.27323 67.9955C2.76478 68.2822 3.38211 68.4553 4.12519 68.5148C4.86828 68.5742 5.50526 68.5015 6.03615 68.2966C6.56725 68.0889 6.98086 67.786 7.27697 67.388C7.57331 66.9871 7.74226 66.5269 7.78382 66.0073C7.80661 65.7224 7.7894 65.4455 7.73218 65.1766C7.67497 64.9078 7.57814 64.6597 7.4417 64.4323C7.30269 64.2018 7.12607 64.0022 6.91186 63.8332C6.69508 63.6612 6.44109 63.5327 6.14989 63.4475L6.23301 62.4083C6.66534 62.5216 7.04644 62.6955 7.37631 62.9299C7.70617 63.1644 7.98034 63.445 8.1988 63.7717C8.41446 64.0982 8.56985 64.4579 8.66494 64.8506C8.76027 65.2406 8.79061 65.6521 8.75598 66.0851C8.69743 66.817 8.46658 67.4536 8.06342 67.9949C7.66027 68.5362 7.11598 68.9439 6.43055 69.218C5.74513 69.4921 4.94986 69.5929 4.04475 69.5205C3.13964 69.4481 2.37051 69.222 1.73738 68.8424C1.10424 68.4628 0.631676 67.9738 0.319684 67.3753C0.00769087 66.7768 -0.119034 66.1116 -0.0604918 65.3797C-0.025858 64.9467 0.0695083 64.5452 0.225607 64.1754C0.381929 63.8027 0.593899 63.4725 0.861517 63.1846C1.12634 62.8965 1.44022 62.663 1.80316 62.484C2.1633 62.3048 2.56719 62.1937 3.01483 62.1508Z" fill="white"/>
<path d="M9.24644 60.467L0.893847 58.4968L1.13235 57.4854L4.85186 58.3627L5.90202 53.909L2.18251 53.0316L2.421 52.0202L10.7736 53.9904L10.5351 55.0019L6.79927 54.1206L5.74911 58.5744L9.48494 59.4556L9.24644 60.467Z" fill="white"/>
<path d="M8.16891 37.6873L15.8923 41.378L15.4599 42.2831L7.38529 43.5943L7.34926 43.6697L13.4133 46.5675L12.9665 47.5028L5.24315 43.8121L5.67553 42.9069L13.7724 41.5879L13.8085 41.5125L7.72933 38.6075L8.16891 37.6873Z" fill="white"/>
<path d="M18.2888 29.879C19.0264 30.4037 19.569 30.9902 19.9169 31.6387C20.2647 32.2873 20.4192 32.9474 20.3803 33.6191C20.3414 34.2908 20.1099 34.9249 19.6858 35.5214C19.2617 36.1179 18.7388 36.5447 18.1172 36.8019C17.4955 37.0591 16.8214 37.1298 16.0948 37.014C15.3681 36.8982 14.636 36.578 13.8985 36.0534C13.1609 35.5287 12.6182 34.9422 12.2704 34.2937C11.9226 33.6451 11.7681 32.985 11.807 32.3133C11.8458 31.6416 12.0773 31.0075 12.5015 30.411C12.9256 29.8145 13.4485 29.3877 14.0701 29.1305C14.6917 28.8733 15.3659 28.8026 16.0925 28.9184C16.8192 29.0342 17.5512 29.3544 18.2888 29.879ZM17.706 30.6986C17.1005 30.2679 16.5174 30.0057 15.9567 29.912C15.3977 29.816 14.889 29.8638 14.4305 30.0554C13.9737 30.2447 13.5948 30.5511 13.2937 30.9745C12.9925 31.398 12.8268 31.8577 12.7963 32.3537C12.7675 32.8474 12.8893 33.3437 13.1618 33.8427C13.4359 34.3394 13.8757 34.8031 14.4813 35.2338C15.0868 35.6645 15.6691 35.9278 16.2281 36.0238C16.7888 36.1175 17.2975 36.0697 17.7543 35.8804C18.2127 35.6889 18.5925 35.3813 18.8936 34.9579C19.1947 34.5344 19.3597 34.0758 19.3885 33.5821C19.419 33.0861 19.2972 32.5898 19.0231 32.0931C18.7506 31.5942 18.3115 31.1293 17.706 30.6986Z" fill="white"/>
<path d="M25.1135 28.4574L17.5032 23.8972L18.2634 23.1685L24.3769 26.9638L24.4372 26.906L20.9302 20.6124L21.7749 19.8027L27.9125 23.5748L27.9729 23.517L24.4418 17.2465L25.202 16.5178L29.4335 24.3166L28.6612 25.0568L22.5794 21.4396L22.5311 21.4859L25.8858 27.7171L25.1135 28.4574Z" fill="white"/>
<path d="M35.8611 14.9142L34.9595 13.3121L34.1487 14.9634L33.4408 14.5742L34.3925 12.9933L32.5519 13.1209L32.5278 12.3133L34.3669 12.3432L33.3512 10.8108L34.0351 10.3924L34.9367 11.9945L35.7475 10.3432L36.4554 10.7324L35.5037 12.3133L37.3443 12.1857L37.3684 12.9933L35.5293 12.9634L36.5449 14.4958L35.8611 14.9142Z" fill="white"/>
</g>
<defs>
<clipPath id="clip0_1_1449">
<rect width="142" height="142" fill="white"/>
</clipPath>
</defs>
</svg>
