<svg width="125" height="46" viewBox="0 0 125 46" fill="none" xmlns="http://www.w3.org/2000/svg">
<path d="M62.1292 0C27.6434 0 0 10.1865 0 22.9579C0 35.654 27.8718 45.9184 62.1296 45.9184C96.3895 45.9184 124.263 35.6185 124.263 22.9579C124.263 10.2999 96.3895 0 62.1292 0ZM123.883 21.1851C123.905 21.2972 123.921 21.4106 123.941 21.5193C123.924 21.411 123.902 21.2985 123.883 21.1851Z" fill="#C9C9CA"/>
<path d="M62.1305 0.916992C28.3306 0.916992 0.951172 10.7626 0.951172 22.9464C0.951172 35.1244 28.3306 44.9763 62.1305 44.9763C95.9346 44.9763 123.307 35.1244 123.307 22.9464C123.307 10.7634 95.9341 0.916992 62.1305 0.916992Z" fill="url(#paint0_radial_1_1404)"/>
<path d="M62.4089 5.53653C91.1452 5.53653 114.873 12.455 118.498 21.4097V21.4081C116.076 11.9876 91.7658 4.58691 62.1261 4.58691C30.8836 4.58691 5.55884 12.8078 5.55884 22.9532C5.55884 23.7802 5.72838 24.5923 6.05202 25.3905C5.91174 24.8701 5.84033 24.3339 5.83955 23.7954C5.84041 13.7126 31.166 5.53653 62.4089 5.53653Z" fill="url(#paint1_linear_1_1404)"/>
<path d="M120.376 20.6553C120.623 21.3969 120.75 22.1726 120.75 22.9534C120.75 34.0603 94.5045 43.0629 62.1259 43.0629C33.3115 43.0629 9.35556 35.9308 4.42676 26.5399C8.1666 36.3005 32.6638 43.8408 62.3598 43.8729H62.7186C95.0127 43.8416 121.165 34.93 121.165 23.9339C121.165 22.8185 120.896 21.7204 120.376 20.6553Z" fill="url(#paint2_linear_1_1404)"/>
<path d="M73.4071 26.0484C73.2779 25.7252 73.2538 25.3623 73.3281 25.0014C73.3543 24.8733 73.1864 24.7582 73.0491 24.8974C71.7361 26.2463 71.6382 27.9912 72.4984 28.7745C72.8053 29.0563 73.159 29.1827 73.5354 29.2064C72.9753 28.5059 72.7104 27.1325 73.4071 26.0484Z" fill="url(#paint3_linear_1_1404)"/>
<path d="M86.708 28.6454H86.7097C86.7766 28.5176 86.8436 28.3826 86.9152 28.2379C86.9697 28.1266 86.9427 28.0953 86.8959 28.0767C86.7612 28.0289 86.6217 27.9269 86.6024 27.8215C86.5934 27.8025 86.5925 27.7843 86.5908 27.7627L86.5925 27.7741C86.6097 27.9777 86.6642 28.361 86.708 28.6454Z" fill="url(#paint4_linear_1_1404)"/>
<path d="M88.1992 23.3623C88.6374 23.7766 88.9047 24.2788 88.9545 24.7409C88.9738 24.9597 89.1429 24.9838 89.2811 24.793C89.3171 24.7409 89.3583 24.6762 89.4068 24.6034C89.3691 24.5505 89.3274 24.4997 89.2888 24.4498C88.9495 24.0648 88.5856 23.7015 88.1992 23.3623Z" fill="url(#paint5_linear_1_1404)"/>
<path d="M70.0137 22.5127C70.3656 22.987 70.5299 23.6645 70.5055 24.5315C70.4995 24.7562 70.6655 24.7414 70.7737 24.5882C70.8355 24.5032 70.89 24.4278 70.947 24.3504V24.3436C70.6904 23.5663 70.2965 22.803 70.0137 22.5127Z" fill="url(#paint6_linear_1_1404)"/>
<path d="M86.3616 24.8049C85.2791 24.2927 83.6274 25.2322 82.1328 27.0447C80.9078 28.5268 80.2477 30.034 80.2249 31.5034C80.2155 32.0271 80.4168 32.6743 80.8846 32.9103C81.03 32.9899 81.1883 33.0438 81.3525 33.0698C81.2999 32.8772 81.2725 32.6787 81.271 32.4793C81.2525 30.9629 81.7307 29.4485 82.9587 27.9643C84.4425 26.1606 86.0036 25.2618 87.0874 25.7584C87.0316 25.3616 86.8221 25.0194 86.3616 24.8049Z" fill="url(#paint7_linear_1_1404)"/>
<path d="M53.983 27.8102C55.1239 26.2857 56.409 25.7091 57.8743 25.0852C58.0675 25.0019 58.0907 24.8945 58.0537 24.7261C57.9911 24.4385 57.7876 23.7245 57.7254 23.5527C57.7717 23.7097 57.7305 23.8298 57.54 23.8996C55.8771 24.5218 54.21 25.4879 53.0567 27.0103C51.7484 28.7378 51.3977 30.8155 52.2716 32.0126C52.4798 32.2926 52.7279 32.5003 53.0018 32.6356C52.5309 31.2059 52.8747 29.2889 53.983 27.8102Z" fill="url(#paint8_linear_1_1404)"/>
<path d="M62.3535 36.852C63.4777 36.852 64.8594 36.852 65.7942 36.8465C65.9333 36.8389 66.0324 36.7615 66.1054 36.6591C67.5025 34.5018 68.9941 32.1614 70.4217 30.0025C70.7346 31.0917 70.8956 31.5984 71.478 32.1115C72.0708 32.6331 72.6189 32.7701 73.4254 32.7769C74.1581 32.7858 74.8801 32.4973 75.7394 32.1458C76.0292 32.0239 76.3074 31.8768 76.5708 31.7063C76.5708 31.3061 76.612 30.9039 76.6841 30.5198C76.6901 30.4783 76.6489 30.2123 76.4184 30.3701C75.9405 30.7125 75.4176 30.9895 74.8642 31.1936C74.0727 31.4846 73.704 31.5938 72.9713 31.587C72.0498 31.5798 71.2192 31.1936 70.6355 30.2952C70.3088 29.81 70.1736 29.0702 70.1427 28.5271C70.1384 28.4674 70.0594 28.3617 69.9727 28.4987C68.4237 30.832 66.9772 33.0865 65.4397 35.4557C65.3594 35.5674 65.2899 35.6401 65.1306 35.6452C64.1808 35.6452 63.1403 35.6427 62.0943 35.6486C61.9848 35.6486 61.9063 35.5991 61.8835 35.5238C61.9655 35.8855 62.0999 36.5407 62.1351 36.6938C62.1582 36.7974 62.2368 36.852 62.3535 36.852Z" fill="url(#paint9_linear_1_1404)"/>
<path d="M77.3943 35.561C77.6535 36.0517 78.2351 36.6025 78.5879 36.7755C80.6027 37.7538 83.4794 36.6448 85.3272 34.8944C85.3457 34.8703 85.35 34.8686 85.3761 34.8403C85.4607 35.1546 85.5646 35.5365 85.5796 35.5894C85.7054 35.9959 85.9032 36.3652 86.0762 36.561C87.3403 37.9687 90.0238 37.3279 92.8172 35.1977C94.3787 34.0082 95.5359 32.8137 96.9541 31.1882C97.0112 31.1205 97.006 31.0206 96.9742 30.8684C96.8931 30.5147 96.7656 29.8752 96.6944 29.5537C96.6921 29.6074 96.673 29.6591 96.6399 29.7018C95.1595 31.4804 93.5228 33.1618 91.9579 34.3513C89.5242 36.2095 87.0948 36.6811 85.8942 35.49C85.4448 35.0471 85.1993 34.4143 85.1697 33.8775C85.1551 33.5865 85.0053 33.573 84.8636 33.7096C83.4292 35.1101 80.9358 36.6608 78.663 35.556C77.4913 34.9858 76.88 33.916 76.6603 32.7388C76.662 32.7511 76.6663 32.7659 76.6693 32.779C76.8096 33.6132 76.9938 34.8174 77.3943 35.561Z" fill="url(#paint10_linear_1_1404)"/>
<path d="M76.3918 27.9647C77.1395 27.5658 77.7962 26.7198 77.7147 25.3472C77.6713 24.6641 77.4709 23.9602 77.1464 23.3926C77.367 23.8067 77.4593 24.2889 77.3812 24.7969C77.2378 25.6827 76.7506 26.4635 75.9227 26.8679C75.2209 27.2067 74.401 27.1471 73.8267 26.6424C73.6543 26.486 73.5174 26.2955 73.425 26.0832C73.5726 26.7524 73.7018 27.2443 73.8787 27.5079C74.4199 28.3124 75.3574 28.5154 76.3918 27.9647Z" fill="url(#paint11_linear_1_1404)"/>
<path d="M98.6304 16.3733C98.1591 17.1774 89.0582 30.832 88.4831 32.2444C88.3011 32.6915 88.2796 33.0333 88.4646 33.2794C88.6526 33.5273 88.9265 33.6216 89.2376 33.6166C89.2694 33.444 89.3359 33.2498 89.4188 33.0447C89.9939 31.6272 98.5171 18.8634 98.9849 18.0555C99.0236 17.9866 99.0098 17.9092 98.9974 17.8576C98.9699 17.7294 98.6841 16.3724 98.6562 16.2451C98.6638 16.2895 98.6546 16.3351 98.6304 16.3733Z" fill="url(#paint12_linear_1_1404)"/>
<path d="M60.8582 22.7285C60.8848 22.7569 60.9058 22.7852 60.929 22.8135C61.4767 23.6168 61.7754 24.7475 61.8055 25.9153C61.8381 26.1615 61.945 26.1674 62.066 26.041C62.1767 25.9301 62.2849 25.8121 62.3914 25.6983C62.2313 25.071 61.9832 24.5068 61.7278 23.9624C61.6325 23.7661 61.217 23.0623 60.8582 22.7285Z" fill="url(#paint13_linear_1_1404)"/>
<path d="M46.1711 35.4901C46.3368 35.5726 46.508 35.4978 46.5904 35.4521C47.1454 35.1721 48.2262 34.3531 48.6919 33.7817C48.8332 33.6518 48.9688 33.7402 49.0139 33.8785C49.2083 34.486 49.4933 34.9542 49.8126 35.4525C50.1603 36.0075 50.8591 36.5827 51.7643 36.8272C52.9357 37.1508 54.1998 37.2079 55.8613 36.5827C57.1936 36.0802 58.5899 35.0566 59.6634 33.9065C60.9519 32.5279 61.4181 31.6447 61.9061 31.0424C62.7418 30.023 64.0428 28.2172 65.8661 26.6843C66.504 26.1467 67.2023 25.7981 67.6405 25.9673C67.9041 25.2981 67.7792 24.9289 67.4989 24.7512C67.0723 24.4775 66.2189 24.8883 65.4987 25.4297C63.5354 26.8949 61.8859 29.1774 61.0506 30.1985C60.5579 30.7992 60.0935 31.6853 58.8066 33.0626C56.7837 35.2266 54.1015 36.4706 51.5141 35.6115C50.1019 35.1437 49.08 34.0245 48.6911 32.6497C48.613 32.3845 48.4623 32.3101 48.3155 32.4852C47.8979 33 47.0433 33.7559 46.3295 34.2317C46.2514 34.2871 46.0582 34.3997 45.8925 34.3185C45.7432 34.2516 45.2131 33.5139 45.1092 33.3016C45.0961 33.2797 45.0872 33.2556 45.083 33.2305V33.2398C45.2693 34.1476 45.2925 34.2533 45.5444 34.6729C45.8299 35.1357 46.108 35.4639 46.1711 35.4901Z" fill="url(#paint14_linear_1_1404)"/>
<path d="M30.5687 27.3359C31.222 26.0377 32.1414 25.4181 33.0453 24.8546C33.4342 24.6118 33.6067 24.3767 33.3754 23.7443C33.3097 23.5637 33.2728 23.2388 33.1998 22.9512C33.223 23.232 33.0822 23.4736 32.8303 23.603C31.7263 24.158 30.3974 25.1093 29.7416 26.407C29.2085 27.4645 29.1003 28.7441 29.9124 29.9597C29.9806 30.0566 30.0545 30.1547 30.136 30.2448H30.1369C29.8759 29.2356 30.1566 28.1485 30.5687 27.3359Z" fill="url(#paint15_linear_1_1404)"/>
<path d="M41.8724 11.5724C45.8861 10.2679 50.3604 11.0927 53.9543 11.8507C54.4569 11.5415 54.8968 11.3279 55.3377 11.0898C55.557 10.9764 55.3115 10.8415 55.2432 10.8415C50.6037 9.98323 45.7822 8.86991 41.1762 10.5509C37.9836 11.7251 36.5848 14.2195 37.2599 15.8848C37.3887 16.2025 37.5943 16.4495 37.8626 16.6251C37.6372 15.0892 38.8056 12.5724 41.8724 11.5724Z" fill="url(#paint16_linear_1_1404)"/>
<path d="M28.8165 35.4799C30.1321 36.3936 31.4275 36.6964 32.9388 36.7227C36.0086 36.7755 38.8127 35.5264 41.7864 32.5528C44.6412 29.6976 47.1123 25.7075 49.549 21.7534C49.6297 21.6142 49.7159 21.552 50.1241 21.4996C51.653 21.3139 53.0227 21.2276 54.373 21.1028C54.7757 21.0656 55.0817 21.0292 55.2293 21.173C55.7169 21.654 56.2844 22.0935 56.6595 22.3083C56.9089 22.3113 57.1184 22.3654 57.2647 22.4945C57.4223 22.4742 57.5661 22.3879 57.6592 22.2986C57.8343 22.1298 57.8412 21.9323 57.8124 21.7648C57.7519 21.4361 57.6618 20.7885 57.5549 20.6007C57.6287 20.7437 57.5811 20.9459 57.4356 21.1079C57.3287 21.228 57.1617 21.3418 56.9493 21.3393C56.7737 21.335 56.6698 21.2758 56.4492 21.1565C55.9938 20.9167 55.4315 20.5195 55.0534 20.0504C54.9259 19.8931 54.8602 19.8888 54.5383 19.9066C53.0944 19.9895 50.8414 20.2027 49.3138 20.3918C48.9455 20.437 48.8905 20.5051 48.8137 20.6295C46.3796 24.5862 43.781 28.8512 40.9275 31.7068C37.8676 34.7693 35.3223 35.5734 32.6224 35.5941C29.5067 35.6157 26.7343 33.8759 26.0312 30.819V30.8206C26.4111 32.5287 27.5275 34.5836 28.8165 35.4799Z" fill="url(#paint17_linear_1_1404)"/>
<path d="M40.3272 22.1878C40.259 22.0855 40.2215 21.9663 40.219 21.8439C40.1873 22.3566 40.3972 23.1104 40.5654 23.3621C40.7504 23.6429 41.2711 23.7808 41.6831 23.478C42.6145 22.802 43.4554 22.4082 44.3963 22.2327C44.6379 21.9065 44.8989 21.5453 45.1976 21.1392C45.2238 21.1075 45.2307 21.0652 45.2195 21.0441C45.2028 21.0073 45.1727 20.9967 45.1122 20.9941C43.7331 21.0318 42.5278 21.4383 41.3604 22.2982C41.0243 22.5402 40.5392 22.5059 40.3272 22.1878Z" fill="url(#paint18_linear_1_1404)"/>
<path d="M77.8674 12.9222C75.938 13.9658 73.922 14.2809 71.8136 14.2991C66.7165 14.3401 61.968 12.3829 57.056 11.3314C57.0628 11.5424 57.1186 11.7958 56.9383 11.9295C54.2179 13.9065 51.758 15.9162 50.1098 18.7363C50.0553 18.8023 50.0853 18.8632 50.181 18.8564C50.6154 18.8369 51.0356 18.8175 51.4498 18.7951C52.9508 16.4779 54.5566 15.1497 57.0083 13.3664C57.192 13.2293 57.3753 13.1342 57.3152 12.6185C62.2427 13.6967 65.9899 15.4826 72.3531 15.4991C74.252 15.5055 76.9295 14.8815 78.37 14.0275C80.0255 13.0462 80.4659 12.3246 80.5252 11.5619C80.5445 11.3238 80.4805 10.9701 80.4415 10.7878C80.3852 10.5294 80.3483 10.1994 80.2736 9.9541C80.299 10.0539 80.3106 10.1669 80.3011 10.2908C80.2509 11.1681 79.5624 12.0111 77.8674 12.9222Z" fill="url(#paint19_linear_1_1404)"/>
<path d="M56.5769 16.1956C56.5164 16.2523 56.4481 16.3103 56.3807 16.3712C55.8945 16.8676 55.7465 17.5247 55.8177 18.0219C55.8576 18.2242 55.9366 18.2635 56.0301 18.2462C56.1265 18.2251 56.2208 18.1959 56.3121 18.159C56.3464 17.8852 56.4627 17.6195 56.7434 17.3757C56.9463 17.1989 57.2008 17.1168 57.4184 17.1523C57.6059 16.7859 57.6596 16.345 57.4308 16.1482C57.2111 15.9612 56.8605 15.9963 56.5769 16.1956Z" fill="url(#paint20_linear_1_1404)"/>
<path d="M58.5377 17.9146C58.0703 18.7957 57.2994 19.2652 56.5599 19.4932C56.5599 19.4932 56.4049 19.5279 56.4281 19.6675C56.4461 19.824 56.9706 20.1514 57.2981 20.3811C57.3458 20.3684 57.417 20.3426 57.417 20.3426C57.7964 20.1941 58.4291 19.8139 58.7948 19.025C59.0292 18.5161 59.1567 18.1168 59.0549 17.2433C58.9811 16.6342 58.8562 16.0835 58.6905 15.7988C59.0103 16.4371 58.8828 17.2565 58.5377 17.9146Z" fill="url(#paint21_linear_1_1404)"/>
<path d="M44.8433 14.7685C43.4955 17.891 40.9202 20.3676 37.7834 20.47C36.0291 20.528 34.6865 19.7128 33.9727 18.4697C34.4942 19.3977 35.3767 20.2116 36.1631 20.6993C36.8425 21.1163 37.6808 21.3486 38.6397 21.3168C41.9082 21.2069 44.3849 18.5522 45.2064 16.3095C45.4258 15.7046 45.2545 15.0565 45.1532 14.6183C45.112 14.4508 45.0558 14.0689 44.9313 13.7969H44.93C45.0227 14.0215 45.0227 14.3523 44.8433 14.7685Z" fill="url(#paint22_linear_1_1404)"/>
<path d="M62.1292 0C27.6434 0 0 10.1865 0 22.9579C0 35.654 27.8718 45.9184 62.1296 45.9184C96.3895 45.9184 124.263 35.6185 124.263 22.9579C124.263 10.2999 96.3895 0 62.1292 0ZM0.425792 23.2113C0.413344 20.5244 1.61518 17.8549 4.14203 15.3419C13.0364 6.50012 36.3417 0.524087 62.0261 0.420877C96.0509 0.28129 123.777 10.2791 123.836 22.7075C123.848 25.3952 122.575 28.0292 120.048 30.54C111.152 39.3835 87.9188 45.3972 62.2365 45.4979C28.2122 45.6379 0.483308 35.6413 0.425792 23.2113ZM123.883 21.1851C123.905 21.2972 123.921 21.4106 123.941 21.5193C123.924 21.411 123.902 21.2985 123.883 21.1851Z" fill="#4B4B4B"/>
<path d="M0.1875 22.9571C0.1875 23.5569 0.259181 24.1525 0.383656 24.7392C0.287626 24.2356 0.237208 23.7246 0.232998 23.2122C0.22098 20.4894 1.45629 17.7408 4.00418 15.2075C12.9484 6.31663 36.2772 0.334247 62.0257 0.227653C65.5934 0.212002 69.0894 0.310136 72.4966 0.511058C69.0453 0.297543 65.5881 0.190615 62.13 0.19043C27.782 0.19043 0.1875 10.3406 0.1875 22.9571Z" fill="url(#paint23_linear_1_1404)"/>
<path d="M120.186 30.6817C111.272 39.5387 87.9498 45.5837 62.2366 45.689C58.6784 45.707 55.1205 45.6116 51.5686 45.4031C54.9998 45.6188 58.5311 45.7279 62.1293 45.7279C96.2819 45.7279 124.068 35.4522 124.068 22.9659C124.068 22.4887 124.024 22.0163 123.946 21.5459C124.002 21.9321 124.027 22.3217 124.03 22.7129C124.046 25.4362 122.734 28.1484 120.186 30.6817Z" fill="url(#paint24_linear_1_1404)"/>
<path d="M62.1267 2.84375C29.7463 2.84375 3.49701 11.8446 3.49701 22.9532C3.49701 34.0602 29.7463 43.0627 62.1267 43.0627C94.5045 43.0627 120.75 34.0602 120.75 22.9532C120.75 11.8446 94.5041 2.84375 62.1267 2.84375ZM62.1267 41.3208C30.8842 41.3208 5.55944 33.0995 5.55944 22.9528C5.55944 12.8065 30.8838 4.58606 62.1267 4.58606C93.3713 4.58606 118.693 12.8069 118.693 22.9528C118.693 33.1 93.3713 41.3208 62.1267 41.3208Z" fill="white"/>
<path d="M98.6306 16.3732C98.7117 16.2332 98.628 16.1309 98.4486 16.1309C97.5094 16.1309 96.2823 16.1338 95.3079 16.1338C95.0749 16.1338 94.9568 16.1592 94.847 16.3732C94.4864 17.0538 90.098 23.5336 89.2812 24.7912C89.143 24.9828 88.9739 24.9583 88.9545 24.7392C88.8738 23.9913 88.2176 23.1297 87.1857 22.7211C86.3985 22.4059 85.6298 22.3493 84.8323 22.4546C83.3888 22.6454 82.1037 23.3974 80.9727 24.2422C79.2682 25.5196 77.7981 27.1731 75.9018 28.3951C74.8665 29.0596 73.447 29.6404 72.4989 28.7741C71.6387 27.9899 71.7379 26.2459 73.0496 24.897C73.1869 24.7578 73.3548 24.8728 73.3286 25.001C73.2037 25.6131 73.3552 26.2188 73.8252 26.6426C74.3999 27.1473 75.2193 27.2073 75.9215 26.8681C76.7508 26.4641 77.2371 25.6816 77.3796 24.7971C77.5994 23.419 76.5237 22.2059 75.1781 22.109C74.0866 22.0329 73.0388 22.4076 72.0186 23.238C71.5087 23.6567 71.2159 23.9634 70.7742 24.5865C70.6652 24.7392 70.4995 24.7548 70.506 24.5298C70.5562 22.7689 69.8175 21.777 68.3388 21.7457C67.1919 21.7165 65.9673 22.3323 65.0115 23.081C63.965 23.908 63.0499 25.0082 62.0665 26.0395C61.9455 26.1659 61.8386 26.16 61.806 25.9138C61.776 24.7455 61.4772 23.6149 60.9295 22.812C60.7334 22.5333 60.3273 22.395 59.9844 22.5836C59.826 22.6682 59.2757 22.9186 58.8722 23.2376C58.6752 23.3996 58.5984 23.6326 58.6842 23.9321C59.2122 25.6782 59.0967 27.6591 58.3791 29.3354C57.7215 30.8662 56.4407 32.2524 54.9341 32.7185C53.9439 33.0277 52.9107 32.8763 52.2725 32.0096C51.3986 30.8125 51.7492 28.7348 53.0575 27.0073C54.2108 25.4849 55.878 24.5188 57.5408 23.8966C57.7369 23.8209 57.7777 23.6978 57.7215 23.5341C57.6313 23.265 57.4876 22.8987 57.4283 22.7321C57.2764 22.3332 56.8476 22.2659 56.3256 22.3226C55.1174 22.4614 54.0276 22.8687 52.9506 23.4372C50.1315 24.9253 48.718 27.8046 48.0974 29.3464C47.7999 30.0879 47.5441 30.5481 47.2127 30.9589C46.7676 31.5096 46.2114 32.0104 45.1898 32.8936C45.098 32.9753 45.031 33.1432 45.1078 33.301C45.2117 33.5133 45.7422 34.251 45.8912 34.3178C46.0568 34.3991 46.25 34.2865 46.3285 34.2311C47.0423 33.7553 47.8969 32.9994 48.3146 32.4846C48.4609 32.3095 48.6116 32.3839 48.6901 32.6491C49.079 34.0239 50.101 35.1431 51.5132 35.6109C54.1001 36.4683 56.7819 35.226 58.8057 33.062C60.0921 31.6847 60.5565 30.7985 61.0497 30.1979C61.8854 29.1768 63.5349 26.8935 65.4973 25.4291C66.2184 24.8885 67.0713 24.4765 67.4984 24.7506C67.8422 24.9706 67.9538 25.4786 67.4005 26.4688C65.3995 30.0727 62.4533 34.306 61.9112 35.3296C61.8137 35.5081 61.9009 35.6494 62.0897 35.6494C63.1362 35.6443 64.1762 35.6469 65.1261 35.6469C65.2853 35.6397 65.3548 35.5674 65.4347 35.4574C66.9722 33.0869 68.4182 30.832 69.9682 28.5C70.0544 28.3642 70.1343 28.47 70.1381 28.5279C70.169 29.0715 70.3055 29.81 70.6305 30.2964C71.2146 31.1949 72.0452 31.5811 72.9667 31.5878C73.6994 31.5963 74.0681 31.4863 74.8596 31.1949C75.4127 30.9902 75.9354 30.7134 76.4138 30.3717C76.6443 30.214 76.6855 30.48 76.6795 30.5215C76.325 32.4025 76.7615 34.633 78.66 35.5551C80.9332 36.6591 83.4265 35.1084 84.8606 33.7087C85.0018 33.5738 85.1516 33.5865 85.1666 33.8771C85.1954 34.4147 85.4426 35.0479 85.8912 35.4895C87.0926 36.6794 89.5211 36.2082 91.9548 34.3513C93.5198 33.1614 95.1564 31.4804 96.6368 29.7013C96.6888 29.6319 96.7317 29.5198 96.6261 29.4099C96.4025 29.1776 96.0763 28.9124 95.8522 28.7068C95.75 28.6231 95.6015 28.6472 95.5135 28.7115C93.9988 30.1302 92.6364 31.752 90.6637 33.0895C89.9988 33.5488 88.9399 33.9173 88.4631 33.2828C88.2776 33.0366 88.2991 32.6935 88.4815 32.2477C89.0584 30.832 98.1597 17.1778 98.6306 16.3732ZM86.6032 27.8228C86.6226 27.9277 86.7599 28.0284 86.8968 28.0774C86.9428 28.096 86.9707 28.1273 86.9153 28.2382C86.5303 29.0562 86.174 29.5262 85.689 30.2377C85.2443 30.8933 84.74 31.4064 84.133 31.8983C83.2149 32.6466 81.9406 33.4596 80.8868 32.9118C80.419 32.6741 80.2164 32.0286 80.2271 31.5049C80.2511 30.035 80.9108 28.5275 82.135 27.0453C83.6283 25.2328 85.2804 24.2933 86.3637 24.8056C87.4836 25.3326 87.1265 26.6122 86.6251 27.6172C86.5865 27.6934 86.5822 27.7602 86.6032 27.8228Z" fill="white"/>
<path d="M32.6246 35.5953C29.2316 35.6194 26.2442 33.5506 25.9004 29.9754C25.7102 27.9937 26.2785 26.2256 27.4168 24.7701C28.4264 23.4732 30.1373 22.3963 31.5812 22.1323C32.0546 22.0481 32.6865 22.1031 32.9491 22.4094C33.3586 22.8802 33.2393 23.3979 32.8315 23.6031C31.7276 24.158 30.3987 25.1093 29.7428 26.4071C29.2097 27.4646 29.1016 28.7441 29.9137 29.9598C31.2782 31.9859 35.0751 32.043 38.6063 28.8088C39.4815 28.0166 40.2636 27.2565 41.0611 26.3576C42.6157 24.6034 43.1321 23.9635 45.2001 21.1383C45.2263 21.1066 45.2332 21.0643 45.222 21.0431C45.2053 21.0063 45.1752 20.9957 45.1147 20.9932C43.7356 21.0308 42.5312 21.4373 41.3628 22.2973C41.0259 22.5388 40.5409 22.5046 40.3288 22.1865C40.0932 21.8261 40.2619 21.357 40.6507 21.093C42.5312 19.8046 44.5872 19.5694 46.6865 19.2196C46.6852 19.2196 46.8333 19.2255 46.9522 19.069C47.8137 17.9802 48.4639 16.9972 49.3838 15.894C50.3096 14.7765 51.5042 13.752 52.418 12.9783C53.6932 11.8972 54.5109 11.5338 55.3419 11.0884C55.5612 10.975 55.3152 10.8401 55.247 10.8401C50.6075 9.98186 45.786 8.86855 41.1795 10.5495C37.9874 11.7237 36.5881 14.2181 37.2633 15.8835C37.7397 17.0653 39.318 17.2569 40.7945 16.5454C42.0843 15.918 43.1784 14.9592 43.9614 13.7702C44.4108 13.0879 45.3585 13.5798 44.8464 14.7659C43.4987 17.8884 40.9233 20.3651 37.7865 20.4674C35.1154 20.5546 33.3921 18.6194 33.399 16.2307C33.408 11.5194 38.7317 8.41637 44.3232 7.95192C51.0582 7.40457 57.4373 9.17268 64.123 9.97171C69.2471 10.5821 74.16 10.5948 79.309 9.42986C79.9168 9.29958 80.346 9.68154 80.3039 10.2877C80.2537 11.1637 79.5648 12.0067 77.8702 12.9187C75.9404 13.9622 73.9243 14.2774 71.8164 14.2955C66.7193 14.3366 61.9708 12.3794 57.0588 11.3278C57.0656 11.5389 57.1214 11.7923 56.9412 11.9259C54.2207 13.903 51.7608 15.9126 50.1126 18.7327C50.0581 18.7987 50.0881 18.8596 50.1838 18.8529C51.614 18.7788 52.9017 18.7433 54.2357 18.638C54.4684 18.6189 54.477 18.5623 54.4577 18.3939C54.3405 17.4215 54.6276 16.3119 55.4955 15.5484C56.3832 14.7646 57.4957 14.6758 58.2323 15.2392C59.0705 15.8835 58.9967 17.042 58.5392 17.9109C58.0717 18.792 57.3008 19.2615 56.5613 19.4895C56.5613 19.4895 56.4063 19.5242 56.4295 19.6637C56.4583 19.8845 57.4665 20.4361 57.5528 20.5829C57.6361 20.7212 57.5944 20.9378 57.4391 21.1032C57.3322 21.2233 57.1652 21.3371 56.9527 21.3341C56.7772 21.3303 56.6733 21.2711 56.4527 21.1518C55.9977 20.9116 55.435 20.5148 55.0569 20.0457C54.9294 19.8883 54.8637 19.8841 54.5418 19.9019C53.0979 19.9848 50.8449 20.198 49.3172 20.3871C48.949 20.4323 48.894 20.5004 48.8172 20.6248C46.3831 24.5814 43.7845 28.8465 40.931 31.7021C37.8698 34.7696 35.3245 35.5733 32.6246 35.5953ZM55.8179 18.0208C55.8578 18.223 55.9368 18.2624 56.0303 18.245C56.4935 18.1537 57 17.7772 57.3013 17.3432C57.576 16.9477 57.7035 16.3771 57.4313 16.1478C57.1888 15.9435 56.7944 16.0027 56.5012 16.257C55.9205 16.7641 55.744 17.4828 55.8179 18.0208Z" fill="white"/>
<defs>
<radialGradient id="paint0_radial_1_1404" cx="0" cy="0" r="1" gradientUnits="userSpaceOnUse" gradientTransform="translate(61.7188 75.7546) scale(267.715 133.998)">
<stop stop-color="#00082E"/>
<stop offset="0.155" stop-color="#000A30"/>
<stop offset="0.242" stop-color="#010F39"/>
<stop offset="0.312" stop-color="#011946"/>
<stop offset="0.373" stop-color="#02275A"/>
<stop offset="0.414" stop-color="#03346C"/>
<stop offset="0.439" stop-color="#0B4F87"/>
<stop offset="0.48" stop-color="#1676AF"/>
<stop offset="0.513" stop-color="#1C8EC7"/>
<stop offset="0.533" stop-color="#1F97D0"/>
<stop offset="1" stop-color="#1F97D0"/>
</radialGradient>
<linearGradient id="paint1_linear_1_1404" x1="62.0173" y1="46.424" x2="62.0173" y2="-0.215908" gradientUnits="userSpaceOnUse">
<stop stop-color="#00082E"/>
<stop offset="0.321" stop-color="#010A30"/>
<stop offset="0.501" stop-color="#030F39"/>
<stop offset="0.647" stop-color="#071846"/>
<stop offset="0.773" stop-color="#0D245A"/>
<stop offset="0.809" stop-color="#0F2961"/>
<stop offset="0.839" stop-color="#0B386E"/>
<stop offset="0.896" stop-color="#054E83"/>
<stop offset="0.951" stop-color="#015B90"/>
<stop offset="1" stop-color="#006094"/>
</linearGradient>
<linearGradient id="paint2_linear_1_1404" x1="11297.5" y1="46.4347" x2="11297.5" y2="-0.248023" gradientUnits="userSpaceOnUse">
<stop stop-color="#00082E"/>
<stop offset="0.321" stop-color="#010A30"/>
<stop offset="0.501" stop-color="#030F39"/>
<stop offset="0.647" stop-color="#071846"/>
<stop offset="0.773" stop-color="#0D245A"/>
<stop offset="0.809" stop-color="#0F2961"/>
<stop offset="0.839" stop-color="#0B386E"/>
<stop offset="0.896" stop-color="#054E83"/>
<stop offset="0.951" stop-color="#015B90"/>
<stop offset="1" stop-color="#006094"/>
</linearGradient>
<linearGradient id="paint3_linear_1_1404" x1="72.7396" y1="38.516" x2="72.7396" y2="5.74594" gradientUnits="userSpaceOnUse">
<stop stop-color="#00082E"/>
<stop offset="0.321" stop-color="#010A30"/>
<stop offset="0.501" stop-color="#030F39"/>
<stop offset="0.647" stop-color="#071846"/>
<stop offset="0.773" stop-color="#0D245A"/>
<stop offset="0.809" stop-color="#0F2961"/>
<stop offset="0.839" stop-color="#0B386E"/>
<stop offset="0.896" stop-color="#054E83"/>
<stop offset="0.951" stop-color="#015B90"/>
<stop offset="1" stop-color="#006094"/>
</linearGradient>
<linearGradient id="paint4_linear_1_1404" x1="86.7761" y1="38.4686" x2="86.7761" y2="5.90188" gradientUnits="userSpaceOnUse">
<stop stop-color="#00082E"/>
<stop offset="0.321" stop-color="#010A30"/>
<stop offset="0.501" stop-color="#030F39"/>
<stop offset="0.647" stop-color="#071846"/>
<stop offset="0.773" stop-color="#0D245A"/>
<stop offset="0.809" stop-color="#0F2961"/>
<stop offset="0.839" stop-color="#0B386E"/>
<stop offset="0.896" stop-color="#054E83"/>
<stop offset="0.951" stop-color="#015B90"/>
<stop offset="1" stop-color="#006094"/>
</linearGradient>
<linearGradient id="paint5_linear_1_1404" x1="88.8112" y1="38.3761" x2="88.8112" y2="5.96994" gradientUnits="userSpaceOnUse">
<stop stop-color="#00082E"/>
<stop offset="0.321" stop-color="#010A30"/>
<stop offset="0.501" stop-color="#030F39"/>
<stop offset="0.647" stop-color="#071846"/>
<stop offset="0.773" stop-color="#0D245A"/>
<stop offset="0.809" stop-color="#0F2961"/>
<stop offset="0.839" stop-color="#0B386E"/>
<stop offset="0.896" stop-color="#054E83"/>
<stop offset="0.951" stop-color="#015B90"/>
<stop offset="1" stop-color="#006094"/>
</linearGradient>
<linearGradient id="paint6_linear_1_1404" x1="70.4762" y1="38.5923" x2="70.4762" y2="5.73417" gradientUnits="userSpaceOnUse">
<stop stop-color="#00082E"/>
<stop offset="0.321" stop-color="#010A30"/>
<stop offset="0.501" stop-color="#030F39"/>
<stop offset="0.647" stop-color="#071846"/>
<stop offset="0.773" stop-color="#0D245A"/>
<stop offset="0.809" stop-color="#0F2961"/>
<stop offset="0.839" stop-color="#0B386E"/>
<stop offset="0.896" stop-color="#054E83"/>
<stop offset="0.951" stop-color="#015B90"/>
<stop offset="1" stop-color="#006094"/>
</linearGradient>
<linearGradient id="paint7_linear_1_1404" x1="83.661" y1="38.5103" x2="83.661" y2="5.79193" gradientUnits="userSpaceOnUse">
<stop stop-color="#00082E"/>
<stop offset="0.321" stop-color="#010A30"/>
<stop offset="0.501" stop-color="#030F39"/>
<stop offset="0.647" stop-color="#071846"/>
<stop offset="0.773" stop-color="#0D245A"/>
<stop offset="0.809" stop-color="#0F2961"/>
<stop offset="0.839" stop-color="#0B386E"/>
<stop offset="0.896" stop-color="#054E83"/>
<stop offset="0.951" stop-color="#015B90"/>
<stop offset="1" stop-color="#006094"/>
</linearGradient>
<linearGradient id="paint8_linear_1_1404" x1="54.9467" y1="38.4879" x2="54.9467" y2="5.80382" gradientUnits="userSpaceOnUse">
<stop stop-color="#00082E"/>
<stop offset="0.321" stop-color="#010A30"/>
<stop offset="0.501" stop-color="#030F39"/>
<stop offset="0.647" stop-color="#071846"/>
<stop offset="0.773" stop-color="#0D245A"/>
<stop offset="0.809" stop-color="#0F2961"/>
<stop offset="0.839" stop-color="#0B386E"/>
<stop offset="0.896" stop-color="#054E83"/>
<stop offset="0.951" stop-color="#015B90"/>
<stop offset="1" stop-color="#006094"/>
</linearGradient>
<linearGradient id="paint9_linear_1_1404" x1="69.2771" y1="38.512" x2="69.2771" y2="5.7691" gradientUnits="userSpaceOnUse">
<stop stop-color="#00082E"/>
<stop offset="0.321" stop-color="#010A30"/>
<stop offset="0.501" stop-color="#030F39"/>
<stop offset="0.647" stop-color="#071846"/>
<stop offset="0.773" stop-color="#0D245A"/>
<stop offset="0.809" stop-color="#0F2961"/>
<stop offset="0.839" stop-color="#0B386E"/>
<stop offset="0.896" stop-color="#054E83"/>
<stop offset="0.951" stop-color="#015B90"/>
<stop offset="1" stop-color="#006094"/>
</linearGradient>
<linearGradient id="paint10_linear_1_1404" x1="86.8485" y1="38.5893" x2="86.8485" y2="5.59928" gradientUnits="userSpaceOnUse">
<stop stop-color="#00082E"/>
<stop offset="0.321" stop-color="#010A30"/>
<stop offset="0.501" stop-color="#030F39"/>
<stop offset="0.647" stop-color="#071846"/>
<stop offset="0.773" stop-color="#0D245A"/>
<stop offset="0.809" stop-color="#0F2961"/>
<stop offset="0.839" stop-color="#0B386E"/>
<stop offset="0.896" stop-color="#054E83"/>
<stop offset="0.951" stop-color="#015B90"/>
<stop offset="1" stop-color="#006094"/>
</linearGradient>
<linearGradient id="paint11_linear_1_1404" x1="75.5648" y1="38.6186" x2="75.5648" y2="5.71147" gradientUnits="userSpaceOnUse">
<stop stop-color="#00082E"/>
<stop offset="0.321" stop-color="#010A30"/>
<stop offset="0.501" stop-color="#030F39"/>
<stop offset="0.647" stop-color="#071846"/>
<stop offset="0.773" stop-color="#0D245A"/>
<stop offset="0.809" stop-color="#0F2961"/>
<stop offset="0.839" stop-color="#0B386E"/>
<stop offset="0.896" stop-color="#054E83"/>
<stop offset="0.951" stop-color="#015B90"/>
<stop offset="1" stop-color="#006094"/>
</linearGradient>
<linearGradient id="paint12_linear_1_1404" x1="93.6641" y1="38.5214" x2="93.6641" y2="5.82893" gradientUnits="userSpaceOnUse">
<stop stop-color="#00082E"/>
<stop offset="0.321" stop-color="#010A30"/>
<stop offset="0.501" stop-color="#030F39"/>
<stop offset="0.647" stop-color="#071846"/>
<stop offset="0.773" stop-color="#0D245A"/>
<stop offset="0.809" stop-color="#0F2961"/>
<stop offset="0.839" stop-color="#0B386E"/>
<stop offset="0.896" stop-color="#054E83"/>
<stop offset="0.951" stop-color="#015B90"/>
<stop offset="1" stop-color="#006094"/>
</linearGradient>
<linearGradient id="paint13_linear_1_1404" x1="61.6283" y1="38.541" x2="61.6283" y2="5.76183" gradientUnits="userSpaceOnUse">
<stop stop-color="#00082E"/>
<stop offset="0.321" stop-color="#010A30"/>
<stop offset="0.501" stop-color="#030F39"/>
<stop offset="0.647" stop-color="#071846"/>
<stop offset="0.773" stop-color="#0D245A"/>
<stop offset="0.809" stop-color="#0F2961"/>
<stop offset="0.839" stop-color="#0B386E"/>
<stop offset="0.896" stop-color="#054E83"/>
<stop offset="0.951" stop-color="#015B90"/>
<stop offset="1" stop-color="#006094"/>
</linearGradient>
<linearGradient id="paint14_linear_1_1404" x1="56.4488" y1="38.5157" x2="56.4488" y2="5.81882" gradientUnits="userSpaceOnUse">
<stop stop-color="#00082E"/>
<stop offset="0.321" stop-color="#010A30"/>
<stop offset="0.501" stop-color="#030F39"/>
<stop offset="0.647" stop-color="#071846"/>
<stop offset="0.773" stop-color="#0D245A"/>
<stop offset="0.809" stop-color="#0F2961"/>
<stop offset="0.839" stop-color="#0B386E"/>
<stop offset="0.896" stop-color="#054E83"/>
<stop offset="0.951" stop-color="#015B90"/>
<stop offset="1" stop-color="#006094"/>
</linearGradient>
<linearGradient id="paint15_linear_1_1404" x1="31.3962" y1="38.5263" x2="31.3962" y2="5.80639" gradientUnits="userSpaceOnUse">
<stop stop-color="#00082E"/>
<stop offset="0.321" stop-color="#010A30"/>
<stop offset="0.501" stop-color="#030F39"/>
<stop offset="0.647" stop-color="#071846"/>
<stop offset="0.773" stop-color="#0D245A"/>
<stop offset="0.809" stop-color="#0F2961"/>
<stop offset="0.839" stop-color="#0B386E"/>
<stop offset="0.896" stop-color="#054E83"/>
<stop offset="0.951" stop-color="#015B90"/>
<stop offset="1" stop-color="#006094"/>
</linearGradient>
<linearGradient id="paint16_linear_1_1404" x1="46.2603" y1="38.712" x2="46.2603" y2="5.68227" gradientUnits="userSpaceOnUse">
<stop stop-color="#00082E"/>
<stop offset="0.321" stop-color="#010A30"/>
<stop offset="0.501" stop-color="#030F39"/>
<stop offset="0.647" stop-color="#071846"/>
<stop offset="0.773" stop-color="#0D245A"/>
<stop offset="0.809" stop-color="#0F2961"/>
<stop offset="0.839" stop-color="#0B386E"/>
<stop offset="0.896" stop-color="#054E83"/>
<stop offset="0.951" stop-color="#015B90"/>
<stop offset="1" stop-color="#006094"/>
</linearGradient>
<linearGradient id="paint17_linear_1_1404" x1="41.9277" y1="38.521" x2="41.9277" y2="5.79317" gradientUnits="userSpaceOnUse">
<stop stop-color="#00082E"/>
<stop offset="0.321" stop-color="#010A30"/>
<stop offset="0.501" stop-color="#030F39"/>
<stop offset="0.647" stop-color="#071846"/>
<stop offset="0.773" stop-color="#0D245A"/>
<stop offset="0.809" stop-color="#0F2961"/>
<stop offset="0.839" stop-color="#0B386E"/>
<stop offset="0.896" stop-color="#054E83"/>
<stop offset="0.951" stop-color="#015B90"/>
<stop offset="1" stop-color="#006094"/>
</linearGradient>
<linearGradient id="paint18_linear_1_1404" x1="42.7222" y1="38.5975" x2="42.7222" y2="5.75553" gradientUnits="userSpaceOnUse">
<stop stop-color="#00082E"/>
<stop offset="0.321" stop-color="#010A30"/>
<stop offset="0.501" stop-color="#030F39"/>
<stop offset="0.647" stop-color="#071846"/>
<stop offset="0.773" stop-color="#0D245A"/>
<stop offset="0.809" stop-color="#0F2961"/>
<stop offset="0.839" stop-color="#0B386E"/>
<stop offset="0.896" stop-color="#054E83"/>
<stop offset="0.951" stop-color="#015B90"/>
<stop offset="1" stop-color="#006094"/>
</linearGradient>
<linearGradient id="paint19_linear_1_1404" x1="65.3125" y1="38.5413" x2="65.3125" y2="5.79065" gradientUnits="userSpaceOnUse">
<stop stop-color="#00082E"/>
<stop offset="0.321" stop-color="#010A30"/>
<stop offset="0.501" stop-color="#030F39"/>
<stop offset="0.647" stop-color="#071846"/>
<stop offset="0.773" stop-color="#0D245A"/>
<stop offset="0.809" stop-color="#0F2961"/>
<stop offset="0.839" stop-color="#0B386E"/>
<stop offset="0.896" stop-color="#054E83"/>
<stop offset="0.951" stop-color="#015B90"/>
<stop offset="1" stop-color="#006094"/>
</linearGradient>
<linearGradient id="paint20_linear_1_1404" x1="56.6796" y1="38.5573" x2="56.6796" y2="5.7811" gradientUnits="userSpaceOnUse">
<stop stop-color="#00082E"/>
<stop offset="0.321" stop-color="#010A30"/>
<stop offset="0.501" stop-color="#030F39"/>
<stop offset="0.647" stop-color="#071846"/>
<stop offset="0.773" stop-color="#0D245A"/>
<stop offset="0.809" stop-color="#0F2961"/>
<stop offset="0.839" stop-color="#0B386E"/>
<stop offset="0.896" stop-color="#054E83"/>
<stop offset="0.951" stop-color="#015B90"/>
<stop offset="1" stop-color="#006094"/>
</linearGradient>
<linearGradient id="paint21_linear_1_1404" x1="57.7731" y1="38.5225" x2="57.7731" y2="5.80811" gradientUnits="userSpaceOnUse">
<stop stop-color="#00082E"/>
<stop offset="0.321" stop-color="#010A30"/>
<stop offset="0.501" stop-color="#030F39"/>
<stop offset="0.647" stop-color="#071846"/>
<stop offset="0.773" stop-color="#0D245A"/>
<stop offset="0.809" stop-color="#0F2961"/>
<stop offset="0.839" stop-color="#0B386E"/>
<stop offset="0.896" stop-color="#054E83"/>
<stop offset="0.951" stop-color="#015B90"/>
<stop offset="1" stop-color="#006094"/>
</linearGradient>
<linearGradient id="paint22_linear_1_1404" x1="39.6497" y1="38.5878" x2="39.6497" y2="5.79563" gradientUnits="userSpaceOnUse">
<stop stop-color="#00082E"/>
<stop offset="0.321" stop-color="#010A30"/>
<stop offset="0.501" stop-color="#030F39"/>
<stop offset="0.647" stop-color="#071846"/>
<stop offset="0.773" stop-color="#0D245A"/>
<stop offset="0.809" stop-color="#0F2961"/>
<stop offset="0.839" stop-color="#0B386E"/>
<stop offset="0.896" stop-color="#054E83"/>
<stop offset="0.951" stop-color="#015B90"/>
<stop offset="1" stop-color="#006094"/>
</linearGradient>
<linearGradient id="paint23_linear_1_1404" x1="48.519" y1="56.9064" x2="34.5467" y2="3.99269" gradientUnits="userSpaceOnUse">
<stop stop-color="#A5A5A6"/>
<stop offset="0.35" stop-color="#D7D7D7"/>
<stop offset="0.65" stop-color="#D7D7D7"/>
<stop offset="1" stop-color="#A5A5A6"/>
</linearGradient>
<linearGradient id="paint24_linear_1_1404" x1="86.1895" y1="27.7081" x2="72.2477" y2="-25.0895" gradientUnits="userSpaceOnUse">
<stop stop-color="#A5A5A6"/>
<stop offset="0.35" stop-color="#D7D7D7"/>
<stop offset="0.65" stop-color="#D7D7D7"/>
<stop offset="1" stop-color="#A5A5A6"/>
</linearGradient>
</defs>
</svg>
