<svg width="150" height="38" viewBox="0 0 150 38" fill="none" xmlns="http://www.w3.org/2000/svg">
<path d="M149.019 36.6207V10.0373H137.79V36.6207H149.019ZM89.5642 25.4979V10.0373H78.6773V21.9041C78.6773 25.2947 78.5384 26.2446 78.3319 27.1267C77.5733 29.5673 74.9549 30.6528 72.2689 30.6528C68.5477 30.6528 66.8267 29.2285 66.137 26.9899C65.9305 26.2446 65.8617 25.4315 65.7915 24.6183C65.7227 23.7375 65.7915 22.7863 65.7915 21.7686V10.0373H54.7683V25.5657C54.7683 29.024 55.9398 31.6014 57.8686 33.3644C61.1755 36.5529 66.7566 37.5016 71.9234 37.5016C78.1929 37.5016 83.0168 36.6207 86.4613 33.2966C88.255 31.6014 89.5642 29.3641 89.5642 25.4979ZM35.5571 23.4383H20.5685L28.0394 11.3081L35.5571 23.4383ZM56.7009 36.6207L31.897 0H17.9799L21.8244 4.47595L0 36.6207H12.539L16.2797 30.585H39.929L43.7476 36.6207H56.7009ZM134.759 22.854C134.759 19.8701 133.518 16.4118 129.661 11.5958L120.36 0H107.406L114.779 8.1375C116.019 9.49397 117.604 10.7136 117.604 10.7136C115.813 9.69724 113.54 9.29069 111.747 9.29069C107.477 9.29069 103.136 10.1716 99.277 12.2747C95.1428 14.512 92.3866 18.2426 92.3866 23.1928C92.3866 26.9899 94.1089 29.9061 96.313 32.1447C101.273 37.0272 110.299 37.5016 113.606 37.5016C118.497 37.5016 126.145 36.4148 130.484 32.55C133.036 30.2449 134.759 27.0577 134.759 22.854ZM124.011 23.1928C124.011 25.9735 122.15 28.0753 119.808 29.2285C117.88 30.2462 115.606 30.5172 113.608 30.5172C111.609 30.5172 109.268 30.112 107.339 29.1608C104.996 28.0089 103.205 25.7703 103.205 23.3284C103.205 20.4122 105.478 18.1071 108.165 16.9539C109.817 16.2073 111.817 15.9362 113.401 15.9362C114.916 15.9362 117.12 16.1395 118.843 16.8184C121.943 18.1071 124.011 20.5464 124.011 23.1928Z" fill="#CC1E47"/>
</svg>
