<svg width="19" height="19" viewBox="0 0 19 19" fill="none" xmlns="http://www.w3.org/2000/svg">
<path d="M8.24821 0C3.70272 0 0 3.70271 0 8.24822C0 12.7937 3.70272 16.5036 8.24821 16.5036C10.1897 16.5036 11.9753 15.8232 13.3866 14.6935L16.8223 18.1274C16.9956 18.2936 17.2272 18.3853 17.4674 18.3829C17.7076 18.3804 17.9372 18.284 18.1071 18.1143C18.2771 17.9446 18.3738 17.7151 18.3766 17.475C18.3794 17.2348 18.288 17.0031 18.1221 16.8295L14.6864 13.3938C15.817 11.9804 16.4982 10.192 16.4982 8.24822C16.4982 3.70271 12.7937 0 8.24821 0ZM8.24821 1.83336C11.8029 1.83336 14.6631 4.69354 14.6631 8.24822C14.6631 11.8029 11.8029 14.6703 8.24821 14.6703C4.69353 14.6703 1.83333 11.8029 1.83333 8.24822C1.83333 4.69354 4.69353 1.83336 8.24821 1.83336Z" fill="#FF3600"/>
</svg>
